<svg width="64" height="64" viewBox="0 0 64 64" fill="none" xmlns="http://www.w3.org/2000/svg">
<g clip-path="url(#clip0_34_277)">
<path d="M24.4583 35.5292C33.0687 35.1989 41.6791 34.8685 50.2895 34.5382C52.4443 34.4555 54.4851 32.6223 54.3584 30.3614C54.236 28.1769 52.4831 26.2042 50.1817 26.2925C41.5713 26.6228 32.9609 26.9532 24.3505 27.2835C22.1958 27.3662 20.1549 29.1994 20.2816 31.4603C20.404 33.6448 22.1569 35.6175 24.4583 35.5292Z" fill="#01010C"/>
<path d="M19.415 21.4049C28.0254 21.0746 36.6358 20.7443 45.2462 20.414C47.4009 20.3313 49.4418 18.498 49.3151 16.2372C49.1927 14.0527 47.4397 12.08 45.1383 12.1683C36.528 12.4986 27.9176 12.8289 19.3072 13.1592C17.1524 13.2419 15.1116 15.0752 15.2382 17.336C15.3606 19.5205 17.1136 21.4932 19.415 21.4049Z" fill="#01010C"/>
<path d="M18.5282 51.0683C27.1386 50.7379 35.7489 50.4076 44.3593 50.0773C46.5141 49.9946 48.5549 48.1613 48.4283 45.9005C48.3058 43.716 46.5529 41.7433 44.2515 41.8316C35.6411 42.1619 27.0307 42.4922 18.4203 42.8226C16.2656 42.9052 14.2247 44.7385 14.3514 46.9993C14.4738 49.1838 16.2268 51.1566 18.5282 51.0683Z" fill="#01010C"/>
</g>
<defs>
<clipPath id="clip0_34_277">
<rect width="45.5983" height="46.8599" fill="white" transform="translate(40.1431) rotate(58.9435)"/>
</clipPath>
</defs>
</svg>
