<svg width="1440" height="33" viewBox="0 0 1440 33" fill="none" xmlns="http://www.w3.org/2000/svg">
<g clip-path="url(#clip0_34_233)">
<path d="M-48.3443 20.8356C-46.3369 17.6986 -42.3874 17.8911 -39.0933 17.7234C-33.342 17.4305 -27.5501 17.7177 -21.8382 18.4368C-10.5971 19.8519 0.42078 22.8551 11.3832 25.6407C31.8279 30.8357 52.797 35.4577 73.8884 31.53C85.8079 29.3103 96.5369 23.9542 106.049 16.4945C108.904 14.2553 108.384 9.31193 106.049 6.96147C103.23 4.12386 99.4427 4.71644 96.58 6.96147C60.0739 35.5912 12.9411 7.59549 -26.7624 4.45643C-38.4303 3.53393 -52.7966 2.91938 -59.9072 14.0311C-64.5882 21.3462 -53.0013 28.1131 -48.3443 20.8356Z" fill="#F9A826"/>
</g>
<g clip-path="url(#clip1_34_233)">
<path d="M100.656 19.8356C102.663 16.6986 106.613 16.8911 109.907 16.7234C115.658 16.4305 121.45 16.7177 127.162 17.4368C138.403 18.8519 149.421 21.8551 160.383 24.6407C180.828 29.8357 201.797 34.4577 222.888 30.53C234.808 28.3103 245.537 22.9542 255.049 15.4945C257.904 13.2553 257.384 8.31193 255.049 5.96147C252.23 3.12386 248.443 3.71644 245.58 5.96147C209.074 34.5912 161.941 6.59549 122.238 3.45643C110.57 2.53393 96.2034 1.91938 89.0928 13.0311C84.4118 20.3462 95.9987 27.1131 100.656 19.8356Z" fill="#F9A826"/>
</g>
<g clip-path="url(#clip2_34_233)">
<path d="M248.656 19.8356C250.663 16.6986 254.613 16.8911 257.907 16.7234C263.658 16.4305 269.45 16.7177 275.162 17.4368C286.403 18.8519 297.421 21.8551 308.383 24.6407C328.828 29.8357 349.797 34.4577 370.888 30.53C382.808 28.3103 393.537 22.9542 403.049 15.4945C405.904 13.2553 405.384 8.31193 403.049 5.96147C400.23 3.12386 396.443 3.71644 393.58 5.96147C357.074 34.5912 309.941 6.59549 270.238 3.45643C258.57 2.53393 244.203 1.91938 237.093 13.0311C232.412 20.3462 243.999 27.1131 248.656 19.8356Z" fill="#F9A826"/>
</g>
<g clip-path="url(#clip3_34_233)">
<path d="M397.656 18.8356C399.663 15.6986 403.613 15.8911 406.907 15.7234C412.658 15.4305 418.45 15.7177 424.162 16.4368C435.403 17.8519 446.421 20.8551 457.383 23.6407C477.828 28.8357 498.797 33.4577 519.888 29.53C531.808 27.3103 542.537 21.9542 552.049 14.4945C554.904 12.2553 554.384 7.31193 552.049 4.96147C549.23 2.12386 545.443 2.71644 542.58 4.96147C506.074 33.5912 458.941 5.59549 419.238 2.45643C407.57 1.53393 393.203 0.919379 386.093 12.0311C381.412 19.3462 392.999 26.1131 397.656 18.8356Z" fill="#F9A826"/>
</g>
<g clip-path="url(#clip4_34_233)">
<path d="M543.656 19.8356C545.663 16.6986 549.613 16.8911 552.907 16.7234C558.658 16.4305 564.45 16.7177 570.162 17.4368C581.403 18.8519 592.421 21.8551 603.383 24.6407C623.828 29.8357 644.797 34.4577 665.888 30.53C677.808 28.3103 688.537 22.9542 698.049 15.4945C700.904 13.2553 700.384 8.31193 698.049 5.96147C695.23 3.12386 691.443 3.71644 688.58 5.96147C652.074 34.5912 604.941 6.59549 565.238 3.45643C553.57 2.53393 539.203 1.91938 532.093 13.0311C527.412 20.3462 538.999 27.1131 543.656 19.8356Z" fill="#F9A826"/>
</g>
<g clip-path="url(#clip5_34_233)">
<path d="M692.656 18.8356C694.663 15.6986 698.613 15.8911 701.907 15.7234C707.658 15.4305 713.45 15.7177 719.162 16.4368C730.403 17.8519 741.421 20.8551 752.383 23.6407C772.828 28.8357 793.797 33.4577 814.888 29.53C826.808 27.3103 837.537 21.9542 847.049 14.4945C849.904 12.2553 849.384 7.31193 847.049 4.96147C844.23 2.12386 840.443 2.71644 837.58 4.96147C801.074 33.5912 753.941 5.59549 714.238 2.45643C702.57 1.53393 688.203 0.919379 681.093 12.0311C676.412 19.3462 687.999 26.1131 692.656 18.8356Z" fill="#F9A826"/>
</g>
<g clip-path="url(#clip6_34_233)">
<path d="M840.656 18.8356C842.663 15.6986 846.613 15.8911 849.907 15.7234C855.658 15.4305 861.45 15.7177 867.162 16.4368C878.403 17.8519 889.421 20.8551 900.383 23.6407C920.828 28.8357 941.797 33.4577 962.888 29.53C974.808 27.3103 985.537 21.9542 995.049 14.4945C997.904 12.2553 997.384 7.31193 995.049 4.96147C992.23 2.12386 988.443 2.71644 985.58 4.96147C949.074 33.5912 901.941 5.59549 862.238 2.45643C850.57 1.53393 836.203 0.919379 829.093 12.0311C824.412 19.3462 835.999 26.1131 840.656 18.8356Z" fill="#F9A826"/>
</g>
<g clip-path="url(#clip7_34_233)">
<path d="M989.656 17.8356C991.663 14.6986 995.613 14.8911 998.907 14.7234C1004.66 14.4305 1010.45 14.7177 1016.16 15.4368C1027.4 16.8519 1038.42 19.8551 1049.38 22.6407C1069.83 27.8357 1090.8 32.4577 1111.89 28.53C1123.81 26.3103 1134.54 20.9542 1144.05 13.4945C1146.9 11.2553 1146.38 6.31193 1144.05 3.96147C1141.23 1.12386 1137.44 1.71644 1134.58 3.96147C1098.07 32.5912 1050.94 4.59549 1011.24 1.45643C999.57 0.53393 985.203 -0.0806206 978.093 11.0311C973.412 18.3462 984.999 25.1131 989.656 17.8356Z" fill="#F9A826"/>
</g>
<g clip-path="url(#clip8_34_233)">
<path d="M1137.66 17.8356C1139.66 14.6986 1143.61 14.8911 1146.91 14.7234C1152.66 14.4305 1158.45 14.7177 1164.16 15.4368C1175.4 16.8519 1186.42 19.8551 1197.38 22.6407C1217.83 27.8357 1238.8 32.4577 1259.89 28.53C1271.81 26.3103 1282.54 20.9542 1292.05 13.4945C1294.9 11.2553 1294.38 6.31193 1292.05 3.96147C1289.23 1.12386 1285.44 1.71644 1282.58 3.96147C1246.07 32.5912 1198.94 4.59549 1159.24 1.45643C1147.57 0.53393 1133.2 -0.0806206 1126.09 11.0311C1121.41 18.3462 1133 25.1131 1137.66 17.8356Z" fill="#F9A826"/>
</g>
<g clip-path="url(#clip9_34_233)">
<path d="M1285.66 17.8356C1287.66 14.6986 1291.61 14.8911 1294.91 14.7234C1300.66 14.4305 1306.45 14.7177 1312.16 15.4368C1323.4 16.8519 1334.42 19.8551 1345.38 22.6407C1365.83 27.8357 1386.8 32.4577 1407.89 28.53C1419.81 26.3103 1430.54 20.9542 1440.05 13.4945C1442.9 11.2553 1442.38 6.31193 1440.05 3.96147C1437.23 1.12386 1433.44 1.71644 1430.58 3.96147C1394.07 32.5912 1346.94 4.59549 1307.24 1.45643C1295.57 0.53393 1281.2 -0.0806206 1274.09 11.0311C1269.41 18.3462 1281 25.1131 1285.66 17.8356Z" fill="#F9A826"/>
</g>
<g clip-path="url(#clip10_34_233)">
<path d="M1434.66 16.8356C1436.66 13.6986 1440.61 13.8911 1443.91 13.7234C1449.66 13.4305 1455.45 13.7177 1461.16 14.4368C1472.4 15.8519 1483.42 18.8551 1494.38 21.6407C1514.83 26.8357 1535.8 31.4577 1556.89 27.53C1568.81 25.3103 1579.54 19.9542 1589.05 12.4945C1591.9 10.2553 1591.38 5.31193 1589.05 2.96147C1586.23 0.123863 1582.44 0.716439 1579.58 2.96147C1543.07 31.5912 1495.94 3.59549 1456.24 0.456431C1444.57 -0.46607 1430.2 -1.08062 1423.09 10.0311C1418.41 17.3462 1430 24.1131 1434.66 16.8356Z" fill="#F9A826"/>
</g>
<defs>
<clipPath id="clip0_34_233">
<rect width="169" height="29" fill="white" transform="translate(-61 4)"/>
</clipPath>
<clipPath id="clip1_34_233">
<rect width="169" height="29" fill="white" transform="translate(88 3)"/>
</clipPath>
<clipPath id="clip2_34_233">
<rect width="169" height="29" fill="white" transform="translate(236 3)"/>
</clipPath>
<clipPath id="clip3_34_233">
<rect width="169" height="29" fill="white" transform="translate(385 2)"/>
</clipPath>
<clipPath id="clip4_34_233">
<rect width="169" height="29" fill="white" transform="translate(531 3)"/>
</clipPath>
<clipPath id="clip5_34_233">
<rect width="169" height="29" fill="white" transform="translate(680 2)"/>
</clipPath>
<clipPath id="clip6_34_233">
<rect width="169" height="29" fill="white" transform="translate(828 2)"/>
</clipPath>
<clipPath id="clip7_34_233">
<rect width="169" height="29" fill="white" transform="translate(977 1)"/>
</clipPath>
<clipPath id="clip8_34_233">
<rect width="169" height="29" fill="white" transform="translate(1125 1)"/>
</clipPath>
<clipPath id="clip9_34_233">
<rect width="169" height="29" fill="white" transform="translate(1273 1)"/>
</clipPath>
<clipPath id="clip10_34_233">
<rect width="169" height="29" fill="white" transform="translate(1422)"/>
</clipPath>
</defs>
</svg>
