<svg
  width="1440"
  height="291"
  viewBox="0 0 1440 291"
  fill="none"
  xmlns="http://www.w3.org/2000/svg"
>
  <g clip-path="url(#clip0_27_1437)">
    <path
      d="M-28.1798 160.644C-22.804 181.979 -0.0455251 193.52 20.6041 189.338C41.6585 185.074 57.8474 167.008 62.3842 146.185C64.7212 135.46 62.543 123.752 53.8877 116.442C45.1174 109.034 32.1918 109.432 24.3186 117.924C7.88159 135.651 25.264 160.267 37.7278 174.502C52.569 191.453 74.663 202.141 96.4721 191.534C115.48 182.29 133.82 164.121 138.538 142.919C140.848 132.543 139.779 120.367 133.331 111.607C126.118 101.807 112.498 98.5564 102.313 105.645C83.1733 118.967 93.295 148.575 103.782 164.128C116.937 183.639 140.424 195.814 164.032 192.842C186.691 189.991 205.218 174.012 211.476 152.016C212.954 146.823 208.569 141.246 203.614 140.274C197.951 139.163 193.414 142.952 191.931 148.164C184.863 173.01 154.536 179.016 134.383 166.749C123.438 160.087 116.218 148.627 112.786 136.464C111.4 131.556 110.547 126.354 113.637 122.108C114.223 121.303 115.631 121.78 114.109 121.572C115.17 121.717 115.734 121.951 116.521 122.593C118.327 124.067 119.034 126.763 119.432 128.952C121.88 142.414 112.197 154.949 102.735 163.22C92.7315 171.964 80.9533 179.704 67.6338 173.459C55.6556 167.844 46.1945 154.943 40.0315 143.532C38.7647 141.186 37.4343 138.269 37.5345 135.529C37.5753 134.412 38.0777 131.39 39.4758 130.983C41.9892 130.25 43.3071 135.601 43.3931 137.26C44.0703 150.32 32.5414 164.489 20.787 168.679C7.9599 173.251 -5.98603 167.592 -9.43845 153.891C-10.7589 148.65 -17.4673 146.159 -22.1765 147.851C-27.644 149.816 -29.504 155.388 -28.1798 160.644Z"
      fill="#F9A826"></path>
  </g>
  <g clip-path="url(#clip1_27_1437)">
    <path
      d="M120.314 164.321C125.69 185.656 148.448 197.197 169.098 193.015C190.152 188.751 206.341 170.685 210.878 149.863C213.215 139.137 211.037 127.429 202.381 120.119C193.611 112.711 180.685 113.109 172.812 121.601C156.375 139.328 173.758 163.944 186.221 178.179C201.063 195.13 223.157 205.818 244.966 195.211C263.973 185.967 282.313 167.798 287.032 146.596C289.341 136.22 288.272 124.044 281.825 115.284C274.612 105.484 260.991 102.233 250.806 109.322C231.667 122.644 241.788 152.252 252.275 167.805C265.43 187.316 288.917 199.491 312.526 196.519C335.184 193.668 353.712 177.689 359.97 155.693C361.447 150.5 357.063 144.923 352.107 143.951C346.445 142.84 341.908 146.629 340.425 151.841C333.356 176.687 303.029 182.693 282.877 170.426C271.932 163.764 264.712 152.304 261.279 140.141C259.894 135.233 259.04 130.031 262.131 125.785C262.717 124.98 264.124 125.457 262.603 125.249C263.664 125.394 264.228 125.628 265.015 126.27C266.821 127.744 267.527 130.44 267.926 132.63C270.373 146.091 260.69 158.626 251.229 166.897C241.225 175.641 229.447 183.381 216.127 177.136C204.149 171.521 194.688 158.62 188.525 147.209C187.258 144.863 185.928 141.946 186.028 139.206C186.069 138.089 186.571 135.067 187.969 134.66C190.483 133.927 191.801 139.278 191.887 140.937C192.564 153.997 181.035 168.166 169.281 172.356C156.453 176.928 142.508 171.269 139.055 157.568C137.735 152.327 131.026 149.836 126.317 151.528C120.85 153.493 118.989 159.065 120.314 164.321Z"
      fill="#F9A826"></path>
  </g>
  <g clip-path="url(#clip2_27_1437)">
    <path
      d="M561.907 152.187C567.283 173.522 590.041 185.064 610.691 180.882C631.745 176.618 647.934 158.551 652.471 137.729C654.808 127.003 652.629 115.296 643.974 107.985C635.204 100.578 622.278 100.976 614.405 109.468C597.968 127.195 615.35 151.811 627.814 166.046C642.655 182.997 664.75 193.685 686.559 183.078C705.566 173.834 723.906 155.665 728.625 134.463C730.934 124.086 729.865 111.911 723.417 103.15C716.205 93.3508 702.584 90.1001 692.399 97.1891C673.26 110.51 683.381 140.119 693.868 155.672C707.023 175.183 730.51 187.357 754.118 184.386C776.777 181.535 795.305 165.555 801.563 143.56C803.04 138.366 798.656 132.79 793.7 131.817C788.037 130.706 783.501 134.496 782.018 139.708C774.949 164.553 744.622 170.559 724.469 158.293C713.525 151.631 706.305 140.17 702.872 128.008C701.487 123.099 700.633 117.898 703.724 113.652C704.31 112.847 705.717 113.324 704.196 113.115C705.257 113.261 705.82 113.494 706.608 114.137C708.414 115.611 709.12 118.306 709.518 120.496C711.966 133.957 702.283 146.493 692.822 154.763C682.818 163.508 671.04 171.247 657.72 165.003C645.742 159.387 636.281 146.487 630.118 135.075C628.851 132.73 627.521 129.813 627.621 127.073C627.662 125.955 628.164 122.934 629.562 122.526C632.076 121.794 633.394 127.145 633.48 128.804C634.157 141.864 622.628 156.033 610.873 160.223C598.046 164.795 584.1 159.136 580.648 145.435C579.328 140.194 572.619 137.702 567.91 139.395C562.442 141.36 560.582 146.932 561.907 152.187Z"
      fill="#F9A826"></path>
  </g>
  <g clip-path="url(#clip3_27_1437)">
    <path
      d="M714.641 155.543C720.017 176.878 742.775 188.419 763.425 184.237C784.479 179.973 800.668 161.907 805.205 141.085C807.542 130.359 805.364 118.651 796.709 111.341C787.938 103.933 775.013 104.332 767.139 112.823C750.702 130.55 768.085 155.166 780.549 169.402C795.39 186.352 817.484 197.041 839.293 186.434C858.301 177.189 876.641 159.02 881.359 137.819C883.668 127.442 882.6 115.266 876.152 106.506C868.939 96.7062 855.319 93.4556 845.134 100.545C825.994 113.866 836.116 143.474 846.602 159.027C859.758 178.538 883.244 190.713 906.853 187.742C929.512 184.89 948.039 168.911 954.297 146.915C955.775 141.722 951.39 136.145 946.435 135.173C940.772 134.062 936.235 137.851 934.752 143.063C927.683 167.909 897.357 173.915 877.204 161.648C866.259 154.986 859.039 143.526 855.606 131.363C854.221 126.455 853.368 121.253 856.458 117.007C857.044 116.203 858.451 116.679 856.93 116.471C857.991 116.616 858.555 116.85 859.342 117.492C861.148 118.967 861.855 121.662 862.253 123.852C864.7 137.313 855.018 149.848 845.556 158.119C835.552 166.863 823.774 174.603 810.455 168.358C798.476 162.743 789.015 149.842 782.852 138.431C781.586 136.085 780.255 133.168 780.355 130.428C780.396 129.311 780.899 126.289 782.297 125.882C784.81 125.149 786.128 130.501 786.214 132.159C786.891 145.22 775.362 159.388 763.608 163.578C750.781 168.151 736.835 162.492 733.382 148.79C732.062 143.55 725.354 141.058 720.644 142.75C715.177 144.715 713.317 150.287 714.641 155.543Z"
      fill="#F9A826"></path>
  </g>
  <g clip-path="url(#clip4_27_1437)">
    <path
      d="M933.847 149.597C939.223 170.932 961.982 182.473 982.631 178.291C1003.69 174.027 1019.87 155.961 1024.41 135.139C1026.75 124.413 1024.57 112.705 1015.91 105.395C1007.14 97.9873 994.219 98.3856 986.346 106.877C969.909 124.604 987.291 149.22 999.755 163.456C1014.6 180.406 1036.69 191.095 1058.5 180.487C1077.51 171.243 1095.85 153.074 1100.57 131.873C1102.87 121.496 1101.81 109.32 1095.36 100.56C1088.15 90.7602 1074.52 87.5095 1064.34 94.5985C1045.2 107.92 1055.32 137.528 1065.81 153.081C1078.96 172.592 1102.45 184.767 1126.06 181.796C1148.72 178.944 1167.25 162.965 1173.5 140.969C1174.98 135.776 1170.6 130.199 1165.64 129.227C1159.98 128.116 1155.44 131.905 1153.96 137.117C1146.89 161.963 1116.56 167.969 1096.41 155.702C1085.47 149.04 1078.25 137.58 1074.81 125.417C1073.43 120.509 1072.57 115.307 1075.66 111.061C1076.25 110.257 1077.66 110.733 1076.14 110.525C1077.2 110.67 1077.76 110.904 1078.55 111.546C1080.35 113.02 1081.06 115.716 1081.46 117.906C1083.91 131.367 1074.22 143.902 1064.76 152.173C1054.76 160.917 1042.98 168.657 1029.66 162.412C1017.68 156.797 1008.22 143.896 1002.06 132.485C1000.79 130.139 999.461 127.222 999.562 124.482C999.602 123.365 1000.1 120.343 1001.5 119.936C1004.02 119.203 1005.33 124.555 1005.42 126.213C1006.1 139.274 994.568 153.442 982.814 157.632C969.987 162.205 956.041 156.546 952.589 142.844C951.268 137.604 944.56 135.112 939.851 136.804C934.383 138.769 932.523 144.341 933.847 149.597Z"
      fill="#F9A826"></path>
  </g>
  <g clip-path="url(#clip5_27_1437)">
    <path
      d="M1082.18 151.153C1087.56 172.488 1110.31 184.03 1130.96 179.847C1152.02 175.583 1168.21 157.517 1172.74 136.695C1175.08 125.969 1172.9 114.261 1164.25 106.951C1155.48 99.5437 1142.55 99.942 1134.68 108.433C1118.24 126.161 1135.62 150.777 1148.09 165.012C1162.93 181.963 1185.02 192.651 1206.83 182.044C1225.84 172.799 1244.18 154.63 1248.9 133.429C1251.21 123.052 1250.14 110.876 1243.69 102.116C1236.48 92.3166 1222.86 89.0659 1212.67 96.1549C1193.53 109.476 1203.66 139.085 1214.14 154.638C1227.3 174.149 1250.78 186.323 1274.39 183.352C1297.05 180.5 1315.58 164.521 1321.84 142.525C1323.31 137.332 1318.93 131.755 1313.97 130.783C1308.31 129.672 1303.77 133.462 1302.29 138.674C1295.22 163.519 1264.9 169.525 1244.74 157.258C1233.8 150.597 1226.58 139.136 1223.15 126.974C1221.76 122.065 1220.91 116.863 1224 112.618C1224.58 111.813 1225.99 112.29 1224.47 112.081C1225.53 112.227 1226.09 112.46 1226.88 113.103C1228.69 114.577 1229.39 117.272 1229.79 119.462C1232.24 132.923 1222.56 145.459 1213.1 153.729C1203.09 162.474 1191.31 170.213 1177.99 163.969C1166.02 158.353 1156.55 145.452 1150.39 134.041C1149.12 131.696 1147.79 128.779 1147.89 126.038C1147.94 124.921 1148.44 121.9 1149.84 121.492C1152.35 120.76 1153.67 126.111 1153.75 127.769C1154.43 140.83 1142.9 154.999 1131.15 159.189C1118.32 163.761 1104.37 158.102 1100.92 144.401C1099.6 139.16 1092.89 136.668 1088.18 138.36C1082.72 140.326 1080.86 145.898 1082.18 151.153Z"
      fill="#F9A826"></path>
  </g>
  <g clip-path="url(#clip6_27_1437)">
    <path
      d="M1228.15 149.69C1233.53 171.025 1256.29 182.566 1276.94 178.384C1297.99 174.12 1314.18 156.054 1318.72 135.231C1321.05 124.506 1318.87 112.798 1310.22 105.488C1301.45 98.08 1288.52 98.4784 1280.65 106.97C1264.21 124.697 1281.6 149.313 1294.06 163.548C1308.9 180.499 1330.99 191.187 1352.8 180.58C1371.81 171.336 1390.15 153.167 1394.87 131.965C1397.18 121.589 1396.11 109.413 1389.66 100.653C1382.45 90.853 1368.83 87.6023 1358.64 94.6913C1339.5 108.013 1349.63 137.621 1360.11 153.174C1373.27 172.685 1396.76 184.86 1420.36 181.888C1443.02 179.037 1461.55 163.058 1467.81 141.062C1469.29 135.869 1464.9 130.292 1459.95 129.32C1454.28 128.209 1449.75 131.998 1448.26 137.21C1441.19 162.055 1410.87 168.062 1390.71 155.795C1379.77 149.133 1372.55 137.672 1369.12 125.51C1367.73 120.602 1366.88 115.4 1369.97 111.154C1370.55 110.349 1371.96 110.826 1370.44 110.618C1371.5 110.763 1372.07 110.996 1372.85 111.639C1374.66 113.113 1375.37 115.809 1375.76 117.998C1378.21 131.46 1368.53 143.995 1359.07 152.266C1349.06 161.01 1337.28 168.749 1323.97 162.505C1311.99 156.89 1302.53 143.989 1296.36 132.578C1295.1 130.232 1293.77 127.315 1293.87 124.575C1293.91 123.458 1294.41 120.436 1295.81 120.029C1298.32 119.296 1299.64 124.647 1299.72 126.306C1300.4 139.366 1288.87 153.535 1277.12 157.725C1264.29 162.297 1250.35 156.638 1246.89 142.937C1245.57 137.696 1238.86 135.204 1234.15 136.897C1228.69 138.862 1226.83 144.434 1228.15 149.69Z"
      fill="#F9A826"></path>
  </g>
  <path
    d="M341.801 160.334C347.177 181.669 369.935 193.211 390.585 189.029C411.639 184.764 427.828 166.698 432.365 145.876C434.702 135.15 432.524 123.443 423.868 116.132C415.098 108.725 402.172 109.123 394.299 117.614C377.862 135.342 395.245 159.958 407.708 174.193C422.55 191.144 444.644 201.832 466.453 191.225C485.46 181.98 503.8 163.812 508.519 142.61C510.828 132.233 509.759 120.058 503.312 111.297C496.099 101.498 482.478 98.2471 472.293 105.336C453.154 118.657 463.276 148.266 473.762 163.819C486.918 183.33 510.404 195.504 534.013 192.533C556.672 189.681 575.199 173.702 581.457 151.706C582.934 146.513 578.55 140.936 573.595 139.964C567.932 138.853 563.395 142.643 561.912 147.855C554.843 172.7 524.517 178.706 504.364 166.44C493.419 159.778 486.199 148.317 482.766 136.155C481.381 131.246 480.527 126.045 483.618 121.799C484.204 120.994 485.611 121.471 484.09 121.262C485.151 121.408 485.715 121.641 486.502 122.284C488.308 123.758 489.015 126.453 489.413 128.643C491.86 142.104 482.178 154.64 472.716 162.91C462.712 171.655 450.934 179.394 437.614 173.15C425.636 167.534 416.175 154.634 410.012 143.222C408.745 140.877 407.415 137.96 407.515 135.22C407.556 134.102 408.058 131.081 409.457 130.673C411.97 129.941 413.288 135.292 413.374 136.951C414.051 150.011 402.522 164.18 390.768 168.37C377.941 172.942 363.995 167.283 360.542 153.582C359.222 148.341 352.513 145.849 347.804 147.542C342.337 149.507 340.477 155.079 341.801 160.334Z"
    fill="#F9A826"></path>
  <defs>
    <clipPath id="clip0_27_1437">
      <rect
        width="240.294"
        height="94.629"
        fill="white"
        transform="translate(-32 112.865) rotate(-4.33298)"></rect>
    </clipPath>
    <clipPath id="clip1_27_1437">
      <rect
        width="240.294"
        height="94.629"
        fill="white"
        transform="translate(116.494 116.542) rotate(-4.33298)"></rect>
    </clipPath>
    <clipPath id="clip2_27_1437">
      <rect
        width="240.294"
        height="94.629"
        fill="white"
        transform="translate(558.086 104.409) rotate(-4.33298)"></rect>
    </clipPath>
    <clipPath id="clip3_27_1437">
      <rect
        width="240.294"
        height="94.629"
        fill="white"
        transform="translate(710.821 107.764) rotate(-4.33298)"></rect>
    </clipPath>
    <clipPath id="clip4_27_1437">
      <rect
        width="240.294"
        height="94.629"
        fill="white"
        transform="translate(930.027 101.818) rotate(-4.33298)"></rect>
    </clipPath>
    <clipPath id="clip5_27_1437">
      <rect
        width="240.294"
        height="94.629"
        fill="white"
        transform="translate(1078.36 103.375) rotate(-4.33298)"></rect>
    </clipPath>
    <clipPath id="clip6_27_1437">
      <rect
        width="240.294"
        height="94.629"
        fill="white"
        transform="translate(1224.33 101.911) rotate(-4.33298)"></rect>
    </clipPath>
  </defs>
</svg>
