<svg width="743" height="498" viewBox="0 0 743 498" fill="none" xmlns="http://www.w3.org/2000/svg">
<g clip-path="url(#clip0_22_25)">
<g opacity="0.2">
<path d="M257.2 457.762C257.573 459.292 258.069 460.79 258.683 462.24C268.229 458.49 277.879 454.895 287.634 451.456C287.552 451.051 287.47 450.625 287.367 450.206C286.384 445.884 284.286 441.896 281.283 438.638C277.382 434.517 272.356 432.525 267.466 433.741C262.577 434.957 259.027 439.119 257.406 444.594C256.195 448.89 256.124 453.429 257.2 457.762Z" fill="#3F3D56"/>
<path d="M270.915 449.568C279.294 447.695 284.058 437.087 281.554 425.872C279.05 414.657 270.227 407.084 261.847 408.956C253.467 410.828 248.704 421.437 251.208 432.651C253.712 443.866 262.535 451.44 270.915 449.568Z" fill="#3F3D56"/>
<path d="M265.034 424.828C273.414 422.956 278.177 412.347 275.673 401.132C273.169 389.918 264.346 382.344 255.967 384.216C247.587 386.089 242.824 396.697 245.328 407.912C247.832 419.127 256.655 426.7 265.034 424.828Z" fill="#3F3D56"/>
<path d="M259.142 400.104C267.522 398.232 272.285 387.623 269.781 376.408C267.277 365.194 258.454 357.62 250.074 359.492C241.695 361.364 236.931 371.973 239.435 383.188C241.939 394.403 250.762 401.976 259.142 400.104Z" fill="#3F3D56"/>
<path d="M253.25 375.373C261.63 373.501 266.393 362.892 263.889 351.677C261.385 340.463 252.562 332.889 244.182 334.761C235.802 336.633 231.039 347.242 233.543 358.457C236.047 369.671 244.87 377.245 253.25 375.373Z" fill="#3F3D56"/>
<path d="M264.884 171.683C266.313 168.477 267.52 165.177 268.496 161.805L227.295 165.047L270.24 154.655C272.292 143.852 272.033 132.736 269.478 122.041C267.239 112.572 263.224 103.615 257.647 95.6434L207.381 140.601L250.896 87.3869C233.132 68.4149 206.261 59.389 179.556 66.0931C139.652 76.0737 115.199 117.315 124.937 158.206C128.807 174.723 138.086 189.471 151.299 200.107C149.079 205.099 147.392 210.312 146.265 215.658L204.236 230.179L144.892 225.034C144.182 233.322 144.803 241.671 146.732 249.762C150.61 266.278 159.89 281.025 173.101 291.663C166.158 307.257 164.556 324.707 168.542 341.305C178.279 382.196 218.519 407.247 258.423 397.273C298.326 387.3 322.779 346.058 313.042 305.168C309.165 288.652 299.884 273.905 286.673 263.267C293.616 247.673 295.219 230.223 291.233 213.625C287.373 197.096 278.098 182.332 264.884 171.683Z" fill="#F9A826"/>
<path opacity="0.1" d="M146.746 249.735C150.623 266.251 159.904 280.998 173.115 291.636C166.172 307.229 164.569 324.68 168.555 341.278C178.292 382.169 218.533 407.22 258.436 397.246C298.34 387.272 322.793 346.031 313.056 305.14C309.178 288.625 299.898 273.878 286.687 263.239C293.375 248.224 144.768 241.444 146.746 249.735Z" fill="black"/>
</g>
<g opacity="0.2">
<path d="M442.394 450.212C442.144 452.001 442.045 453.807 442.099 455.611C454.07 455.804 466.087 456.207 478.15 456.82C478.232 456.346 478.315 455.866 478.384 455.378C479.161 450.341 478.58 445.189 476.701 440.452C474.215 434.393 469.58 430.059 463.778 429.221C457.975 428.383 452.317 431.24 448.231 436.337C445.084 440.36 443.069 445.15 442.394 450.212Z" fill="#3F3D56"/>
<path d="M482.55 426.6C484.42 413.585 477.878 401.876 467.938 400.447C457.997 399.017 448.423 408.409 446.553 421.424C444.682 434.439 451.224 446.148 461.165 447.578C471.105 449.007 480.679 439.615 482.55 426.6Z" fill="#3F3D56"/>
<path d="M486.687 397.795C488.557 384.78 482.015 373.071 472.075 371.642C462.134 370.213 452.56 379.604 450.69 392.619C448.819 405.634 455.361 417.344 465.302 418.773C475.242 420.202 484.816 410.81 486.687 397.795Z" fill="#3F3D56"/>
<path d="M490.823 368.998C492.693 355.983 486.151 344.273 476.211 342.844C466.27 341.415 456.696 350.807 454.826 363.822C452.955 376.836 459.497 388.546 469.438 389.975C479.378 391.405 488.952 382.012 490.823 368.998Z" fill="#3F3D56"/>
<path d="M494.967 340.194C496.837 327.179 490.295 315.47 480.354 314.04C470.414 312.611 460.84 322.003 458.969 335.018C457.099 348.033 463.641 359.742 473.582 361.171C483.522 362.601 493.096 353.209 494.967 340.194Z" fill="#3F3D56"/>
<path d="M572.632 150.169C575.543 147.386 578.255 144.402 580.749 141.24L534.582 126.732L585.665 134.46C592.104 124.487 596.441 113.306 598.411 101.599C600.382 89.8923 599.945 77.9066 597.126 66.3747L523.403 92.0921L593.363 54.6563C588.907 43.5567 582.214 33.4938 573.701 25.0946C565.187 16.6954 555.036 10.1398 543.879 5.83614C532.722 1.53252 520.799 -0.426892 508.852 0.0799678C496.906 0.586827 485.191 3.5491 474.439 8.78224C463.686 14.0154 454.126 21.4073 446.355 30.4974C438.583 39.5875 432.765 50.1812 429.265 61.6183C425.765 73.0555 424.656 85.0912 426.009 96.9755C427.362 108.86 431.146 120.338 437.127 130.696C432.604 135.019 428.559 139.816 425.062 145.004L481.858 185.723L419.568 154.346C413.016 167.272 409.789 181.629 410.18 196.118C410.571 210.606 414.567 224.768 421.807 237.323C409.978 248.604 401.562 262.986 397.52 278.826C393.478 294.667 393.973 311.325 398.949 326.897C403.926 342.468 413.182 356.325 425.66 366.883C438.138 377.44 453.335 384.272 469.512 386.598C485.689 388.924 502.193 386.649 517.139 380.034C532.084 373.419 544.867 362.73 554.026 349.191C563.185 335.651 568.35 319.807 568.931 303.469C569.512 287.131 565.486 270.96 557.312 256.803C571.448 243.321 580.644 225.478 583.423 206.139C586.201 186.8 582.401 167.088 572.632 150.169Z" fill="#F9A826"/>
<path opacity="0.1" d="M411.019 181.354C408.211 200.693 412.013 220.414 421.807 237.323C409.978 248.603 401.562 262.986 397.52 278.826C393.478 294.666 393.973 311.325 398.949 326.897C403.926 342.468 413.182 356.325 425.66 366.883C438.138 377.44 453.335 384.272 469.512 386.598C485.689 388.924 502.193 386.649 517.139 380.034C532.084 373.419 544.867 362.73 554.026 349.191C563.185 335.651 568.35 319.806 568.931 303.469C569.512 287.131 565.486 270.959 557.312 256.803C570.977 243.786 412.413 171.676 411.019 181.354Z" fill="black"/>
</g>
<path opacity="0.1" d="M371.5 498C576.674 498 743 488.466 743 476.706C743 464.946 576.674 455.412 371.5 455.412C166.326 455.412 0 464.946 0 476.706C0 488.466 166.326 498 371.5 498Z" fill="#F9A826"/>
<path d="M614.383 468.127C623.978 468.127 631.756 466.629 631.756 464.782C631.756 462.934 623.978 461.437 614.383 461.437C604.788 461.437 597.009 462.934 597.009 464.782C597.009 466.629 604.788 468.127 614.383 468.127Z" fill="#F9A826"/>
<path d="M614.094 466.018C615.213 466.018 616.12 464.831 616.12 463.367C616.12 461.902 615.213 460.715 614.094 460.715C612.976 460.715 612.069 461.902 612.069 463.367C612.069 464.831 612.976 466.018 614.094 466.018Z" fill="#3F3D56"/>
<path d="M614.094 462.776C615.213 462.776 616.12 461.589 616.12 460.125C616.12 458.66 615.213 457.473 614.094 457.473C612.976 457.473 612.069 458.66 612.069 460.125C612.069 461.589 612.976 462.776 614.094 462.776Z" fill="#3F3D56"/>
<path d="M614.094 459.541C615.213 459.541 616.12 458.354 616.12 456.889C616.12 455.425 615.213 454.238 614.094 454.238C612.976 454.238 612.069 455.425 612.069 456.889C612.069 458.354 612.976 459.541 614.094 459.541Z" fill="#3F3D56"/>
<path d="M614.094 456.305C615.213 456.305 616.12 455.118 616.12 453.654C616.12 452.19 615.213 451.002 614.094 451.002C612.976 451.002 612.069 452.19 612.069 453.654C612.069 455.118 612.976 456.305 614.094 456.305Z" fill="#3F3D56"/>
<path d="M614.094 453.063C615.213 453.063 616.12 451.876 616.12 450.412C616.12 448.947 615.213 447.76 614.094 447.76C612.976 447.76 612.069 448.947 612.069 450.412C612.069 451.876 612.976 453.063 614.094 453.063Z" fill="#3F3D56"/>
<path d="M614.094 449.828C615.213 449.828 616.12 448.641 616.12 447.177C616.12 445.712 615.213 444.525 614.094 444.525C612.976 444.525 612.069 445.712 612.069 447.177C612.069 448.641 612.976 449.828 614.094 449.828Z" fill="#3F3D56"/>
<path d="M614.094 446.593C615.213 446.593 616.12 445.406 616.12 443.941C616.12 442.477 615.213 441.29 614.094 441.29C612.976 441.29 612.069 442.477 612.069 443.941C612.069 445.406 612.976 446.593 614.094 446.593Z" fill="#3F3D56"/>
<path d="M621.662 421.789C621.94 421.436 622.192 421.065 622.417 420.676L617.102 419.804L622.85 419.845C623.4 418.644 623.7 417.344 623.732 416.024C623.764 414.704 623.527 413.391 623.035 412.165L615.323 416.17L622.438 410.936C621.774 409.777 620.878 408.769 619.807 407.973C618.735 407.177 617.511 406.61 616.211 406.31C614.91 406.009 613.562 405.98 612.25 406.224C610.938 406.469 609.69 406.981 608.585 407.731C607.48 408.48 606.542 409.449 605.829 410.577C605.116 411.706 604.644 412.97 604.441 414.289C604.239 415.609 604.311 416.956 604.654 418.247C604.996 419.537 605.601 420.743 606.431 421.789C606.001 422.337 605.631 422.928 605.325 423.554L612.192 427.14L604.838 424.667C604.322 426.197 604.198 427.833 604.477 429.424C604.755 431.014 605.427 432.51 606.431 433.775C605.307 435.205 604.607 436.922 604.413 438.73C604.218 440.539 604.536 442.366 605.331 444.002C606.125 445.638 607.364 447.017 608.905 447.982C610.446 448.948 612.228 449.459 614.046 449.459C615.865 449.459 617.646 448.948 619.188 447.982C620.729 447.017 621.967 445.638 622.762 444.002C623.556 442.366 623.874 440.539 623.68 438.73C623.485 436.922 622.786 435.205 621.662 433.775C623.005 432.068 623.735 429.958 623.735 427.785C623.735 425.613 623.005 423.503 621.662 421.796V421.789Z" fill="#F9A826"/>
<path opacity="0.1" d="M604.357 427.779C604.35 429.95 605.076 432.06 606.417 433.768C605.293 435.198 604.594 436.915 604.399 438.724C604.204 440.532 604.523 442.359 605.317 443.995C606.111 445.631 607.35 447.011 608.891 447.976C610.433 448.941 612.214 449.453 614.033 449.453C615.851 449.453 617.633 448.941 619.174 447.976C620.715 447.011 621.954 445.631 622.748 443.995C623.543 442.359 623.861 440.532 623.666 438.724C623.472 436.915 622.772 435.198 621.648 433.768C622.96 432.12 604.357 426.693 604.357 427.779Z" fill="black"/>
<path d="M215.415 495.033C228.234 495.033 238.625 493.034 238.625 490.568C238.625 488.102 228.234 486.103 215.415 486.103C202.596 486.103 192.205 488.102 192.205 490.568C192.205 493.034 202.596 495.033 215.415 495.033Z" fill="#F9A826"/>
<path d="M215.024 492.21C216.518 492.21 217.729 490.626 217.729 488.672C217.729 486.718 216.518 485.135 215.024 485.135C213.529 485.135 212.318 486.718 212.318 488.672C212.318 490.626 213.529 492.21 215.024 492.21Z" fill="#3F3D56"/>
<path d="M215.024 487.882C216.518 487.882 217.729 486.298 217.729 484.344C217.729 482.391 216.518 480.807 215.024 480.807C213.529 480.807 212.318 482.391 212.318 484.344C212.318 486.298 213.529 487.882 215.024 487.882Z" fill="#3F3D56"/>
<path d="M215.024 483.555C216.518 483.555 217.729 481.971 217.729 480.017C217.729 478.063 216.518 476.479 215.024 476.479C213.529 476.479 212.318 478.063 212.318 480.017C212.318 481.971 213.529 483.555 215.024 483.555Z" fill="#3F3D56"/>
<path d="M215.024 479.234C216.518 479.234 217.729 477.65 217.729 475.696C217.729 473.743 216.518 472.159 215.024 472.159C213.529 472.159 212.318 473.743 212.318 475.696C212.318 477.65 213.529 479.234 215.024 479.234Z" fill="#3F3D56"/>
<path d="M215.024 474.907C216.518 474.907 217.729 473.323 217.729 471.369C217.729 469.415 216.518 467.832 215.024 467.832C213.529 467.832 212.318 469.415 212.318 471.369C212.318 473.323 213.529 474.907 215.024 474.907Z" fill="#3F3D56"/>
<path d="M215.024 470.579C216.518 470.579 217.729 468.995 217.729 467.042C217.729 465.088 216.518 463.504 215.024 463.504C213.529 463.504 212.318 465.088 212.318 467.042C212.318 468.995 213.529 470.579 215.024 470.579Z" fill="#3F3D56"/>
<path d="M215.024 466.259C216.518 466.259 217.729 464.675 217.729 462.721C217.729 460.767 216.518 459.184 215.024 459.184C213.529 459.184 212.318 460.767 212.318 462.721C212.318 464.675 213.529 466.259 215.024 466.259Z" fill="#3F3D56"/>
<path d="M225.145 433.122C225.512 432.65 225.847 432.155 226.148 431.639L219.055 430.471L226.732 430.533C227.471 428.93 227.874 427.192 227.916 425.427C227.959 423.663 227.64 421.908 226.979 420.271L216.679 425.615L226.176 418.663C225.282 417.132 224.083 415.8 222.653 414.751C221.224 413.703 219.594 412.959 217.865 412.566C216.136 412.173 214.345 412.139 212.603 412.467C210.86 412.795 209.204 413.478 207.736 414.473C206.269 415.468 205.021 416.753 204.07 418.25C203.12 419.748 202.487 421.424 202.211 423.176C201.935 424.928 202.022 426.717 202.466 428.434C202.91 430.151 203.701 431.759 204.792 433.157C204.218 433.89 203.723 434.682 203.316 435.52L212.538 440.328L202.704 437.031C202.013 439.069 201.839 441.248 202.198 443.37C202.558 445.493 203.44 447.492 204.765 449.189C203.264 451.099 202.33 453.393 202.071 455.809C201.812 458.224 202.237 460.664 203.299 462.849C204.36 465.035 206.015 466.877 208.074 468.166C210.133 469.455 212.512 470.138 214.941 470.138C217.37 470.138 219.75 469.455 221.809 468.166C223.867 466.877 225.522 465.035 226.584 462.849C227.645 460.664 228.071 458.224 227.811 455.809C227.552 453.393 226.619 451.099 225.118 449.189C226.911 446.906 227.885 444.086 227.885 441.183C227.885 438.28 226.911 435.461 225.118 433.177L225.145 433.122Z" fill="#F9A826"/>
<path opacity="0.1" d="M202.025 441.125C202.016 444.027 202.983 446.848 204.771 449.134C203.27 451.044 202.337 453.338 202.078 455.754C201.819 458.169 202.244 460.609 203.306 462.795C204.367 464.98 206.022 466.822 208.081 468.111C210.14 469.4 212.519 470.084 214.948 470.084C217.377 470.084 219.757 469.4 221.815 468.111C223.874 466.822 225.529 464.98 226.591 462.795C227.652 460.609 228.078 458.169 227.818 455.754C227.559 453.338 226.626 451.044 225.125 449.134C226.876 446.929 202.025 439.676 202.025 441.125Z" fill="black"/>
<path d="M337.619 293.944C335.868 284.781 333.911 275.597 333.588 266.276C333.395 260.78 333.78 255.189 333.073 249.708C332.723 247.015 332.111 244.37 331.507 241.726L329.076 231.141C329.352 229.112 329.273 227.05 328.843 225.048C328.599 223.992 328.276 222.957 327.874 221.95C330.144 218.755 332.014 215.295 333.444 211.647C334.089 209.998 334.645 208.247 334.391 206.502C333.897 203.157 330.656 200.952 327.641 199.303C325.814 198.307 323.892 197.345 321.804 197.188C320.344 197.129 318.891 197.408 317.557 198.004C316.223 198.6 315.044 199.496 314.113 200.622C313.606 197.914 313.776 195.122 314.608 192.496C312.815 191.692 311.009 190.937 309.19 190.202C308.927 187.828 308.835 185.438 308.915 183.051C308.956 180.187 309.004 177.295 309.169 174.424C314.052 172.641 318.274 169.406 321.266 165.154C324.259 160.902 325.88 155.836 325.911 150.637C325.911 150.341 325.911 150.053 325.911 149.764C327.241 147.371 328.083 144.737 328.388 142.015C328.692 139.294 328.452 136.539 327.682 133.911C325.67 127.042 320.41 121.382 314.072 117.885C307.734 114.389 300.386 112.912 293.114 112.651C290.674 112.508 288.225 112.663 285.822 113.111C283.249 113.745 280.757 114.666 278.392 115.859C274.759 117.535 271.099 119.369 268.38 122.261C263.662 127.296 262.605 134.694 263.12 141.494C263.806 150.424 266.786 159.065 270.234 167.376C271.38 170.124 272.603 172.913 274.491 175.255C275.954 177.061 278.495 177.171 280.513 175.907C280.353 178.102 280.303 180.302 280.362 182.502C276.634 182.371 273.001 182.982 270.007 185.084C268.634 186.067 267.329 187.612 267.631 189.274C268.548 189.299 269.427 189.646 270.113 190.256C270.799 190.865 271.248 191.698 271.38 192.606C271.532 194.069 270.797 195.463 270.083 196.727C269.774 197.291 269.465 197.861 269.149 198.424C266.196 201.584 263.168 205.54 262.9 209.462C262.418 209.508 261.939 209.579 261.465 209.675C258.787 210.17 256.122 211.083 253.492 211.77L234.457 216.785L229.753 218.09L222.2 220.082C217.393 221.346 212.497 222.644 208.232 225.185C203.968 227.727 200.349 231.718 199.491 236.526C199.065 238.916 199.326 241.403 198.804 243.773C198.804 243.883 198.763 243.986 198.735 244.089C198.299 245.589 197.712 247.041 196.984 248.423C192.72 257.415 189.685 267.217 190.255 277.115C190.605 283.194 192.315 289.122 193.977 294.974C195.721 300.959 197.442 306.944 199.141 312.93C200.26 317.214 201.681 321.415 203.391 325.5C206.321 332.044 210.667 337.855 216.116 342.514C217.644 343.886 219.354 345.042 221.197 345.949C224.007 347.164 227.074 347.662 230.124 347.398C230.948 347.343 231.758 347.254 232.562 347.123C238.46 346.189 243.961 343.345 249.008 340.144C251.118 338.807 253.179 337.399 255.188 335.92C255.443 338.228 255.903 340.508 256.562 342.734C257.008 344.266 257.557 345.839 257.379 347.425C257.132 349.637 255.525 351.451 254.694 353.525C252.929 357.908 254.742 362.791 255.037 367.49C255.319 371.893 254.247 376.261 253.389 380.596C251.956 387.824 251.108 395.157 250.855 402.521C250.848 405.31 250.664 408.095 250.306 410.86C249.667 414.762 248.17 418.526 247.909 422.469C247.511 428.61 250.162 434.62 249.921 440.768C249.64 447.987 245.403 455 246.879 462.062C247.065 462.948 247.566 463.971 248.376 464.198L247.978 464.562C246.763 465.688 245.581 467.77 246.962 468.683C247.279 468.872 247.632 468.994 247.999 469.041C250.134 469.487 252.284 469.892 254.433 470.27C254.386 472.256 254.636 474.238 255.175 476.15C255.566 476.432 255.964 476.686 256.362 476.926C256.06 477.737 256.081 478.52 256.795 478.987C257.113 479.176 257.466 479.297 257.832 479.344C275.521 482.995 293.586 484.494 311.634 483.809C314.862 483.685 318.233 483.452 320.987 481.803C323.741 480.155 325.602 476.645 324.29 473.753C323.129 471.197 320.094 470.091 317.368 469.24L314.168 468.251C314.578 467.524 314.817 466.713 314.867 465.88C314.917 465.047 314.777 464.213 314.457 463.442C313.296 460.887 310.261 459.781 307.535 458.929L300.167 456.642C299.197 456.412 298.285 455.984 297.488 455.385C296.961 454.86 296.474 454.295 296.033 453.695C294.969 452.479 293.573 451.603 292.015 451.174C291.933 449.612 291.967 448.047 292.118 446.49L294.179 421.617C294.639 415.985 295.092 410.242 293.78 404.74C293.252 402.508 292.407 400.22 292.922 397.981C293.725 394.327 297.571 392.294 300.194 389.58C304.149 385.459 305.379 379.6 306.285 374.022C310.038 351.005 311.218 327.642 309.801 304.364C318.044 302.039 326.528 300.675 335.085 300.298C336.541 300.236 337.255 299.549 337.708 298.189C338.161 296.829 337.886 295.352 337.619 293.944ZM296.52 295.16C296.568 294.919 296.623 294.679 296.664 294.438L297.234 295.166L296.52 295.16Z" fill="url(#paint0_linear_22_25)"/>
<path d="M283.13 169.08C282.951 171.47 282.107 173.764 281.798 176.148C281.447 178.772 281.756 181.444 281.585 184.088C281.413 186.733 280.651 189.515 278.639 191.239C290.333 192.252 301.851 194.745 312.918 198.657C309.574 194.536 309.485 188.78 309.567 183.491C309.677 175.667 309.815 167.692 312.369 160.308C304.75 158.605 296.861 158.502 289.2 160.006C287.538 160.336 282.505 160.129 281.756 161.682C281.214 162.822 283.253 167.349 283.13 169.08Z" fill="#A1616A"/>
<path opacity="0.1" d="M283.13 169.08C282.951 171.47 282.107 173.764 281.798 176.148C281.447 178.772 281.756 181.444 281.585 184.088C281.413 186.733 280.651 189.515 278.639 191.239C290.333 192.252 301.851 194.745 312.918 198.657C309.574 194.536 309.485 188.78 309.567 183.491C309.677 175.667 309.815 167.692 312.369 160.308C304.75 158.605 296.861 158.502 289.2 160.006C287.538 160.336 282.505 160.129 281.756 161.682C281.214 162.822 283.253 167.349 283.13 169.08Z" fill="black"/>
<path d="M296.973 453.73C297.386 454.339 297.845 454.915 298.347 455.454C299.12 456.053 300.012 456.482 300.963 456.711L308.16 458.998C310.831 459.85 313.797 460.949 314.93 463.504C316.208 466.389 314.388 469.899 311.696 471.541C309.004 473.182 305.708 473.423 302.556 473.547C284.908 474.227 267.244 472.729 249.963 469.089C249.606 469.037 249.263 468.916 248.953 468.731C247.58 467.804 248.754 465.73 249.942 464.61C254.577 460.214 259.617 455.605 265.928 454.588C269.245 454.046 272.575 454.265 275.871 453.475C278.24 452.905 280.479 451.923 282.841 451.339C287.243 450.261 293.828 449.876 296.973 453.73Z" fill="#46455B"/>
<path opacity="0.1" d="M296.973 453.73C297.386 454.339 297.845 454.915 298.347 455.454C299.12 456.053 300.012 456.482 300.963 456.711L308.16 458.998C310.831 459.85 313.797 460.949 314.93 463.504C316.208 466.389 314.388 469.899 311.696 471.541C309.004 473.182 305.708 473.423 302.556 473.547C284.908 474.227 267.244 472.729 249.963 469.089C249.606 469.037 249.263 468.916 248.953 468.731C247.58 467.804 248.754 465.73 249.942 464.61C254.577 460.214 259.617 455.605 265.928 454.588C269.245 454.046 272.575 454.265 275.871 453.475C278.24 452.905 280.479 451.923 282.841 451.339C287.243 450.261 293.828 449.876 296.973 453.73Z" fill="black"/>
<path d="M260.84 298.367C257.289 307.741 257.07 318.051 260.222 327.567C257.825 327.306 256.788 330.548 256.85 332.966C256.935 336.332 257.445 339.674 258.368 342.912C258.807 344.451 259.343 346.017 259.171 347.597C258.924 349.809 257.358 351.622 256.541 353.69C254.824 358.065 256.589 362.942 256.884 367.634C257.159 372.037 256.108 376.399 255.264 380.726C253.865 387.947 253.038 395.267 252.792 402.617C252.787 405.404 252.606 408.186 252.249 410.95C251.631 414.851 250.189 418.608 249.914 422.544C249.523 428.671 252.112 434.682 251.878 440.823C251.604 448.028 247.456 455.035 248.905 462.116C249.111 463.112 249.667 464.287 250.69 464.301C261.046 464.431 270.721 461.553 280.967 463.058C282.01 439.346 283.027 415.524 287.696 392.245C291.816 371.522 298.8 351.032 298.148 329.903C297.77 317.82 294.9 305.971 293.155 294.005C282.208 291.574 270.752 293.12 260.84 298.367Z" fill="#BBBDC8"/>
<path opacity="0.1" d="M260.84 298.367C257.289 307.741 257.07 318.051 260.222 327.567C257.825 327.306 256.788 330.548 256.85 332.966C256.935 336.332 257.445 339.674 258.368 342.912C258.807 344.451 259.343 346.017 259.171 347.597C258.924 349.809 257.358 351.622 256.541 353.69C254.824 358.065 256.589 362.942 256.884 367.634C257.159 372.037 256.108 376.399 255.264 380.726C253.865 387.947 253.038 395.267 252.792 402.617C252.787 405.404 252.606 408.186 252.249 410.95C251.631 414.851 250.189 418.608 249.914 422.544C249.523 428.671 252.112 434.682 251.878 440.823C251.604 448.028 247.456 455.035 248.905 462.116C249.111 463.112 249.667 464.287 250.69 464.301C261.046 464.431 270.721 461.553 280.967 463.058C282.01 439.346 283.027 415.524 287.696 392.245C291.816 371.522 298.8 351.032 298.148 329.903C297.77 317.82 294.9 305.971 293.155 294.005C282.208 291.574 270.752 293.12 260.84 298.367Z" fill="black"/>
<path d="M306.587 464.033C307 464.642 307.459 465.219 307.96 465.757C308.734 466.357 309.625 466.785 310.577 467.014L317.773 469.302C320.444 470.153 323.411 471.252 324.544 473.808C325.821 476.693 324.002 480.203 321.31 481.844C318.618 483.486 315.322 483.726 312.17 483.85C294.522 484.53 276.858 483.033 259.576 479.392C259.22 479.34 258.877 479.219 258.567 479.035C257.193 478.108 258.368 476.033 259.556 474.914C264.191 470.517 269.231 465.908 275.542 464.892C278.858 464.349 282.189 464.569 285.485 463.779C287.854 463.209 290.093 462.227 292.455 461.643C296.857 460.564 303.442 460.18 306.587 464.033Z" fill="#46455B"/>
<path d="M264.411 299.047C261.76 302.482 260.977 307.015 261.334 311.315C261.691 315.615 263.14 319.743 264.562 323.817C262.673 325.555 263.065 328.55 263.312 331.105C264.211 340.598 260.915 350.07 261.396 359.59C261.595 363.595 262.467 367.545 262.673 371.549C262.9 375.925 262.344 380.3 261.822 384.648C258.488 412.484 256.654 440.479 256.328 468.512C256.328 471.094 256.287 473.718 257.015 476.191C262.007 479.866 268.277 480.361 274.32 478.987C280.362 477.613 285.877 474.549 291.295 471.527C294.263 469.99 297.077 468.173 299.7 466.101C300.502 465.533 301.095 464.717 301.389 463.779C301.966 461.031 298.148 459.788 295.957 458.009C292.771 455.419 292.819 450.625 293.149 446.531L295.14 421.693C295.593 416.067 296.033 410.331 294.755 404.836C294.234 402.611 293.43 400.323 293.911 398.084C294.694 394.443 298.457 392.41 301.018 389.697C304.891 385.576 306.086 379.73 306.979 374.166C311.186 347.771 312.081 320.953 309.643 294.335C304.596 296.087 298.615 295.132 293.293 295.544C287.971 295.956 282.683 297.735 277.293 297.88C272.802 297.983 267.171 295.503 264.411 299.047Z" fill="#BBBDC8"/>
<path d="M300.771 176.532C314.803 176.532 326.178 165.154 326.178 151.117C326.178 137.081 314.803 125.702 300.771 125.702C286.739 125.702 275.363 137.081 275.363 151.117C275.363 165.154 286.739 176.532 300.771 176.532Z" fill="#A1616A"/>
<path d="M315.129 192.922C306.988 189.181 298.499 186.25 289.784 184.171C283.645 182.708 276.634 181.828 271.504 185.503C270.131 186.486 268.888 188.031 269.183 189.693C270.088 189.723 270.953 190.074 271.624 190.683C272.294 191.292 272.726 192.12 272.843 193.018C272.994 194.474 272.28 195.869 271.58 197.139L265.653 208.13C264.518 210.11 263.542 212.177 262.735 214.312C261.54 217.801 261.279 221.538 261.025 225.22L260.338 235.193C259.913 241.479 259.48 247.791 260.05 254.062C260.476 258.795 261.465 263.549 260.792 268.254C260.249 272.039 258.649 275.59 257.75 279.313C256.06 286.319 256.829 293.999 253.554 300.428C254.884 299.814 256.386 299.678 257.805 300.043C267.748 301.877 275.569 309.729 285.224 312.73C287.662 309.172 290.965 306.548 293.691 303.237C295.718 300.755 297.061 297.786 297.585 294.624C299.645 297.371 301.396 299.514 302.625 302.702C302.844 303.443 303.218 304.129 303.724 304.714C305.021 305.978 307.157 305.49 308.894 304.961C317.412 302.392 326.217 300.899 335.105 300.517C336.534 300.455 337.227 299.769 337.674 298.409C338.12 297.048 337.873 295.579 337.605 294.177C335.895 285.021 333.986 275.851 333.67 266.543C333.478 261.048 333.856 255.477 333.162 249.996C332.819 247.31 332.221 244.666 331.631 242.028L326.728 220.233C326.453 219.017 325.148 218.22 324.592 217.101C322.34 212.54 318.034 209.242 315.809 204.668C314.129 200.974 313.886 196.785 315.129 192.922Z" fill="#46455B"/>
<path d="M279.483 161.29C279.454 160.934 279.538 160.578 279.724 160.274C279.995 159.988 280.336 159.778 280.712 159.662C281.736 159.176 282.574 158.369 283.098 157.364C283.622 156.359 283.804 155.21 283.617 154.092L286.021 153.59L286.096 145.217C289.667 143.239 294.536 144.736 297.894 142.407C299.782 141.089 300.75 138.849 301.904 136.857C303.057 134.865 304.774 132.86 307.068 132.695C306.279 134.702 305.941 136.857 306.077 139.009C306.214 141.161 306.822 143.257 307.857 145.148C310.262 143.931 312.27 142.053 313.646 139.735L314.841 146.604C314.865 147.028 315.046 147.427 315.349 147.724C315.974 148.184 316.819 147.607 317.368 147.037L320.479 143.98C321.788 147.266 322.685 150.702 323.15 154.208C328.259 149.249 329.845 141.281 327.881 134.439C325.917 127.598 320.774 121.931 314.58 118.435C308.386 114.938 301.203 113.469 294.096 113.207C291.71 113.068 289.316 113.222 286.968 113.668C284.449 114.302 282.011 115.224 279.703 116.415C276.153 118.084 272.568 119.918 269.918 122.803C265.303 127.832 264.266 135.223 264.774 142.037C265.461 150.966 268.359 159.587 271.731 167.884C272.85 170.632 274.045 173.414 275.892 175.756C278.673 179.28 285.506 176.354 284.633 169.389C284.029 164.416 279.483 166.332 279.483 161.29Z" fill="#3F3D56"/>
<path d="M289.097 297.358C280.527 314.873 267.368 329.734 251.02 340.357C246.083 343.551 240.72 346.395 234.945 347.329C234.155 347.46 233.365 347.549 232.562 347.604C229.584 347.851 226.591 347.343 223.861 346.127C222.054 345.217 220.381 344.061 218.89 342.693C213.546 338.014 209.3 332.214 206.454 325.706C204.781 321.621 203.393 317.426 202.299 313.149C200.615 307.169 198.934 301.186 197.259 295.201C195.618 289.348 193.963 283.427 193.619 277.341C193.063 267.457 196.03 257.669 200.198 248.691C200.909 247.308 201.482 245.859 201.908 244.363C201.908 244.26 201.956 244.157 201.977 244.047C202.471 241.678 202.217 239.198 202.663 236.808C203.501 231.999 207.044 228.015 211.206 225.481C215.367 222.946 220.133 221.648 224.864 220.384L232.232 218.399L236.806 217.169L255.408 212.162C257.983 211.475 260.586 210.561 263.202 210.101C266.12 209.552 266.1 209.84 266.326 212.698C266.745 217.877 266.608 222.967 267.7 228.098C268.737 232.995 270.563 237.714 271.937 242.523C275.404 254.66 275.981 267.436 278.714 279.766C279.339 282.576 280.204 285.57 282.464 287.322C285.052 289.383 289.413 289.891 290.1 293.119C290.354 294.555 289.715 296.025 289.097 297.358Z" fill="#F9A826"/>
<path opacity="0.1" d="M234.945 347.302C234.155 347.432 233.365 347.521 232.562 347.576C229.586 347.832 226.594 347.333 223.861 346.127C222.054 345.217 220.381 344.061 218.89 342.693C213.546 338.014 209.3 332.214 206.454 325.706C204.781 321.621 203.393 317.426 202.299 313.149C200.615 307.169 198.934 301.186 197.259 295.201C195.618 289.348 193.963 283.427 193.619 277.341C193.063 267.457 196.03 257.669 200.198 248.691C200.909 247.308 201.482 245.859 201.908 244.363C201.908 244.26 201.956 244.157 201.977 244.047C213.183 246.019 226.629 267.464 233.564 295.565C238.673 316.577 238.893 335.927 234.945 347.302Z" fill="black"/>
<path opacity="0.1" d="M255.202 273.364L253.327 273.687C251.398 268.618 249.475 263.542 247.216 258.61C246.041 256.034 244.771 253.492 243.782 250.834C240.074 240.627 240.706 228.517 233.832 220.109C233.341 219.485 232.782 218.918 232.163 218.419L236.737 217.19C240.742 223.524 243.566 230.531 245.073 237.872C245.815 241.458 246.234 245.126 247.442 248.574C248.47 251.19 249.646 253.745 250.965 256.226C253.574 261.577 255.538 267.423 255.202 273.364Z" fill="black"/>
<path d="M273.454 195.972C278.392 191.74 285.128 189.419 291.521 190.476C295.284 191.088 298.779 192.784 302.151 194.598C308.723 198.087 315.198 202.106 319.936 207.841C322.777 211.459 325.137 215.43 326.954 219.656C327.846 221.502 328.536 223.439 329.014 225.433C330.69 233.195 326.577 240.908 322.614 247.791L314.992 261.021C311.49 267.1 307.96 273.22 303.401 278.557C301.3 281.016 298.992 283.29 296.692 285.564L286.591 295.537C286.409 295.752 286.171 295.911 285.904 295.997C285.683 296.009 285.463 295.973 285.258 295.891C285.053 295.809 284.868 295.684 284.716 295.524L281.379 292.865C284.453 290.741 287.309 288.318 289.907 285.632C294.275 281.112 297.866 275.913 301.437 270.733L312.548 254.619C315.796 249.9 319.188 244.707 318.824 238.992C318.652 236.244 317.622 233.662 316.544 231.141C314.635 226.658 312.561 222.245 310.323 217.904C307.809 213.034 305.063 208.226 301.444 204.111C297.825 199.997 293.252 196.555 287.985 195.065C286.414 194.552 284.749 194.392 283.109 194.598C279.497 195.195 276.929 198.3 274.642 201.185L267.679 210.115C266.093 212.141 264.637 214.49 264.541 210.644C264.376 205.155 269.925 199.502 273.454 195.972Z" fill="#F9A826"/>
<path d="M275.61 256.212C276.984 261.501 279.01 267.505 284.098 269.511C287.703 270.933 291.926 269.779 295.044 267.45C298.161 265.121 300.373 261.838 302.405 258.52C304.126 255.539 306.022 252.663 308.084 249.907C312.156 244.796 317.698 240.743 320.445 234.795C321.255 233.023 321.818 231.127 322.738 229.423C323.721 227.853 324.833 226.366 326.062 224.979C329.223 221.061 331.751 216.671 333.553 211.969C334.185 210.328 334.728 208.569 334.48 206.831C333.993 203.486 330.827 201.288 327.881 199.646C326.089 198.65 324.214 197.682 322.175 197.531C319.195 197.297 316.263 198.905 314.429 201.261C312.664 203.698 311.678 206.612 311.6 209.62C311.394 213.281 312.108 217.087 310.913 220.549C310.281 222.164 309.408 223.674 308.324 225.027C304.467 230.189 299.693 234.597 294.24 238.03C294.091 235.432 293.528 232.874 292.572 230.454C292.05 229.121 281.818 230.454 280.486 230.674C277.849 231.058 272.74 231.36 271.078 233.875C269.416 236.389 271.477 240.613 272.15 243.148L275.61 256.212Z" fill="#A1616A"/>
<path d="M275.363 198.493C273.843 199.749 272.428 201.127 271.133 202.614C268.084 206.289 266.594 211.07 266.21 215.83C265.825 220.59 266.477 225.371 267.295 230.076C268.036 234.298 268.913 238.491 269.925 242.653C270.206 239.514 272.747 236.918 275.693 235.784C278.639 234.651 281.873 234.774 285.011 235.235C289.05 235.833 292.991 236.972 296.726 238.621L298.175 218.309C298.48 215.569 298.464 212.803 298.127 210.067C297.671 207.528 296.679 205.115 295.218 202.989C293.757 200.863 291.86 199.072 289.653 197.737C284.146 194.385 280.307 194.172 275.363 198.493Z" fill="#46455B"/>
<path d="M534.782 297.33C534.13 291.818 532.527 286.461 530.043 281.497C528.526 278.475 526.679 275.583 525.724 272.348C524.948 269.717 524.797 266.949 524.179 264.277C523.561 261.605 522.469 259.049 521.59 256.439C515.376 237.893 520.045 217.602 518.04 198.163C517.291 190.992 515.094 183.127 508.879 179.39C505.185 177.171 500.749 176.828 496.402 176.642L494.418 176.553L491.232 176.395C486.617 176.168 481.989 175.997 477.498 176.965C472.004 178.167 465.494 182.035 463.764 187.646C462.816 187.159 461.862 186.726 460.983 186.321C457.445 184.751 453.738 183.599 449.934 182.886C453.197 182.064 456.347 180.846 459.314 179.259C466.181 175.262 467.774 163.584 469.175 155.774C470.576 147.964 469.299 139.893 466.971 132.303C466.202 129.61 465.155 127.004 463.846 124.528C462.039 121.266 459.578 118.412 456.618 116.144C453.659 113.876 450.263 112.243 446.644 111.347C443.025 110.451 439.26 110.311 435.584 110.936C431.909 111.561 428.402 112.938 425.282 114.98C418.875 119.177 412.921 125.283 408.032 131.184C407.345 131.994 404.475 134.865 405.429 136.074C405.965 136.761 407.73 136.212 409.584 135.387C408.158 138.611 407.423 142.097 407.428 145.622C407.432 150.049 408.588 154.399 410.783 158.244C412.978 162.088 416.136 165.295 419.946 167.548L420.633 173.867V173.915C420.708 176.024 420.743 178.133 420.77 180.235C420.77 181.712 420.77 183.223 420.729 184.734C417.88 187.959 414.39 190.556 410.484 192.359C413.711 192.894 416.787 192.139 419.781 190.847C419.295 192.535 418.478 194.108 417.378 195.477C418.202 195.189 419.026 194.928 419.85 194.653C419.419 195.345 419.036 196.066 418.703 196.81C418.195 197.986 417.824 199.217 417.598 200.478C415.849 203.033 414.335 205.742 413.072 208.569C412.495 209.854 411.98 211.159 411.514 212.485V212.574C411.056 213.893 410.651 215.23 410.298 216.585C410.133 217.236 409.982 217.888 409.845 218.543C409.845 218.591 409.845 218.639 409.845 218.687C409.57 220.013 409.344 221.346 409.158 222.692C409.158 222.781 409.158 222.871 409.158 222.967C409.083 223.592 409.014 224.224 408.966 224.856C408.966 224.856 408.966 224.917 408.966 224.952C408.911 225.639 408.87 226.291 408.849 226.964C408.849 227.054 408.849 227.136 408.849 227.225C408.849 227.796 408.849 228.373 408.849 228.943V229.334C408.849 230.626 408.932 231.924 409.055 233.222C409.055 233.38 409.055 233.545 409.103 233.703C409.158 234.232 409.22 234.761 409.296 235.296C409.296 235.42 409.296 235.544 409.344 235.661C409.433 236.299 409.536 236.931 409.653 237.563C409.653 237.701 409.714 237.845 409.742 237.982C409.838 238.491 409.941 238.992 410.058 239.5L410.181 240.022C410.332 240.654 410.49 241.279 410.669 241.911C410.772 242.268 410.875 242.598 410.985 242.976C411.313 244.278 411.542 245.603 411.671 246.939L407.915 247.063C399.876 247.292 391.844 247.656 383.819 248.155C382.817 244.288 379.397 242.056 375.091 241.527C374.408 241.444 373.72 241.403 373.031 241.403C373.774 240.777 374.434 240.059 374.995 239.267C375.742 238.239 376.275 237.071 376.561 235.832C375.454 236.462 374.487 237.311 373.718 238.326C373.464 238.669 373.237 239.013 373.031 239.329V237.268C373.032 237.224 373.024 237.181 373.008 237.141C372.992 237.1 372.968 237.063 372.937 237.033C372.906 237.002 372.869 236.978 372.829 236.961C372.789 236.945 372.745 236.937 372.702 236.938H372.015C371.972 236.937 371.928 236.945 371.888 236.961C371.847 236.978 371.811 237.002 371.78 237.033C371.749 237.063 371.725 237.1 371.709 237.141C371.692 237.181 371.685 237.224 371.685 237.268V241.465H371.548H371.315C370.861 241.506 370.422 241.561 369.989 241.643C365.313 242.516 361.886 245.518 361.886 250.573C361.888 252.165 362.235 253.738 362.903 255.182C363.572 256.627 364.547 257.909 365.759 258.939C365.961 260.514 366.317 262.065 366.824 263.569C367.297 265.06 367.915 266.681 369.303 267.423C370.15 267.807 371.079 267.977 372.008 267.917C379.644 267.917 386.868 264.393 394.47 263.796C399.167 263.418 403.884 264.146 408.595 264.002C409.282 264.002 409.968 263.933 410.655 263.878C404.214 295.785 396.42 328.096 400.492 360.325C400.76 362.469 401.179 364.79 402.779 366.246C404.901 368.184 408.169 367.868 411.019 367.62C418.839 366.907 426.724 367.536 434.332 369.482C435.402 369.778 436.527 369.818 437.615 369.599C437.847 369.546 438.077 369.479 438.301 369.399L438.494 369.324C438.638 369.269 438.775 369.214 438.906 369.152L439.105 369.049L439.441 368.843C439.496 368.802 439.558 368.767 439.606 368.726C439.726 368.644 439.838 368.552 439.943 368.451L440.039 368.369C440.167 368.243 440.289 368.11 440.403 367.971L440.485 367.847C440.565 367.744 440.638 367.636 440.705 367.524C440.739 367.469 440.773 367.414 440.801 367.359C440.828 367.304 440.911 367.153 440.959 367.05C441.007 366.947 441.014 366.927 441.034 366.865C441.055 366.803 441.124 366.638 441.165 366.521C441.206 366.404 441.165 366.411 441.22 366.35C441.275 366.288 441.316 366.006 441.35 365.834V365.724C441.35 365.58 441.405 365.429 441.426 365.285C441.446 365.141 441.426 365.134 441.426 365.058C441.426 364.983 441.426 364.831 441.426 364.722V364.474C441.426 364.364 441.426 364.254 441.426 364.145V363.533C441.426 363.465 441.426 363.389 441.426 363.313C441.426 362.702 441.357 362.084 441.295 361.493C441.786 361.636 442.286 361.744 442.792 361.816C443.265 361.891 443.742 361.925 444.221 361.919H444.289C444.516 361.919 444.743 361.919 444.976 361.864C445.175 361.833 445.372 361.792 445.567 361.74H445.656C445.836 361.687 446.01 361.618 446.178 361.534L446.26 361.486C446.403 361.407 446.539 361.315 446.665 361.212L446.727 361.163C446.856 361.044 446.971 360.91 447.07 360.765L447.132 360.662C447.234 360.496 447.315 360.319 447.373 360.133C447.764 358.807 446.871 357.31 448.3 356.094C449.673 360.497 451.046 364.907 451.273 369.461C451.348 371.123 451.273 372.896 452.248 374.269C452.883 375.019 453.571 375.722 454.308 376.371C456.409 378.645 456.457 382.073 456.313 385.15C456.251 386.393 456.183 387.636 456.094 388.88C454.959 405.471 451.587 421.832 446.068 437.519C445.53 439.188 444.826 440.799 443.967 442.327C442.573 444.491 440.83 446.408 438.81 448.001C435.946 450.433 432.879 452.614 429.642 454.52C427.989 455.394 426.427 456.432 424.98 457.617C424.925 457.459 424.863 457.308 424.822 457.143C424.746 456.828 424.643 456.457 424.334 456.34C424.1 456.287 423.854 456.326 423.647 456.45C420.427 457.865 417.206 459.28 414.109 460.935C412.546 461.648 411.169 462.713 410.085 464.047C409.096 465.421 408.801 467.481 409.824 468.855C410.724 470.057 412.338 470.456 413.828 470.723C415.737 471.06 417.653 471.3 419.568 471.479C418.584 472.056 417.723 472.822 417.035 473.732C416.046 475.106 415.75 477.167 416.774 478.54C417.673 479.742 419.287 480.141 420.777 480.409C432.952 482.559 445.436 481.096 457.797 480.732C461.814 480.601 465.92 480.574 469.724 479.268C470.475 479.047 471.174 478.68 471.784 478.19C473.515 476.665 473.343 473.986 473.041 471.713L471.784 462.426C471.599 462.426 471.42 462.488 471.242 462.529C472.295 453.805 474.183 445.202 476.88 436.839C481.069 423.822 487.304 410.998 487.221 397.377C487.221 397.047 487.221 396.69 487.221 396.387C487.105 392.122 486.342 387.904 485.848 383.659C485.072 376.557 485.161 369.392 485.209 362.256C485.149 359.457 485.345 356.659 485.793 353.896C485.793 353.8 485.834 353.711 485.855 353.614L497.261 353.312C498.525 353.376 499.786 353.141 500.941 352.625C501.488 352.385 501.927 351.952 502.172 351.408C502.418 350.863 502.454 350.248 502.274 349.679C507.135 351.883 513.638 348.882 515.073 343.771C515.173 343.412 515.253 343.047 515.314 342.679C515.31 342.652 515.31 342.624 515.314 342.597C515.362 342.253 515.396 341.91 515.41 341.573C515.41 341.518 515.41 341.456 515.41 341.401C515.481 339.042 515.116 336.69 514.332 334.464C511.997 327.849 508.289 321.825 504.801 315.732C503.001 312.579 501.257 309.385 499.561 306.177L501.051 308.094C501.574 308.875 502.261 309.534 503.063 310.024C505.844 311.46 508.756 308.568 511.585 307.235C515.341 305.463 519.736 306.507 523.884 306.802C528.031 307.098 533.03 306.026 534.514 302.18C534.994 300.609 535.086 298.944 534.782 297.33ZM463.276 194.096C463.276 195.566 463.372 197.057 463.489 198.554C462.095 196.276 460.486 194.137 458.682 192.166L463.276 194.096Z" fill="url(#paint1_linear_22_25)"/>
<path d="M373.56 239.562C374.32 238.555 375.276 237.712 376.369 237.082C376.09 238.319 375.564 239.488 374.824 240.517C373.629 242.145 372.372 243.264 372.022 242.996C371.672 242.729 372.352 241.19 373.56 239.562Z" fill="#99D55C"/>
<path opacity="0.1" d="M373.711 239.686C374.267 238.937 374.967 238.309 375.771 237.838C375.562 238.753 375.172 239.617 374.624 240.379C373.732 241.588 372.798 242.44 372.564 242.227C372.331 242.014 372.818 240.895 373.711 239.686Z" fill="black"/>
<path d="M371.891 238.195H372.578C372.621 238.195 372.664 238.204 372.704 238.22C372.744 238.237 372.781 238.261 372.811 238.292C372.842 238.322 372.866 238.359 372.883 238.399C372.899 238.439 372.908 238.481 372.908 238.525V246.307H371.603V238.525C371.602 238.444 371.631 238.366 371.685 238.305C371.738 238.244 371.811 238.205 371.891 238.195Z" fill="#F6987E"/>
<path d="M383.86 251.802C383.86 254.717 382.703 257.513 380.642 259.574C378.582 261.635 375.787 262.793 372.873 262.793C369.959 262.793 367.165 261.635 365.104 259.574C363.044 257.513 361.886 254.717 361.886 251.802C361.886 246.767 365.272 243.786 369.893 242.914C370.876 242.733 371.874 242.643 372.873 242.646C373.562 242.645 374.25 242.686 374.933 242.77C380.015 243.402 383.86 246.438 383.86 251.802Z" fill="#FC4A4A"/>
<path opacity="0.1" d="M374.933 242.77C374.734 243.148 373.656 243.457 372.351 243.457C371.5 243.519 370.648 243.34 369.893 242.942C370.876 242.76 371.874 242.67 372.873 242.674C373.561 242.664 374.249 242.696 374.933 242.77Z" fill="black"/>
<path opacity="0.1" d="M374.707 262.532C371.793 262.532 368.998 261.374 366.938 259.313C364.877 257.252 363.72 254.456 363.72 251.542C363.72 246.596 366.982 243.635 371.473 242.708C370.943 242.748 370.416 242.817 369.893 242.914C365.272 243.786 361.886 246.768 361.886 251.803C361.886 254.717 363.044 257.513 365.104 259.574C367.165 261.635 369.959 262.793 372.873 262.793C373.703 262.794 374.531 262.7 375.339 262.511C375.126 262.525 374.933 262.532 374.707 262.532Z" fill="black"/>
<path d="M423.139 465.956C424.657 467.33 426.978 467.296 429.038 467.145L438.425 466.458C445.882 465.908 453.594 465.29 460.172 461.739C460.869 461.42 461.486 460.951 461.978 460.365C462.501 459.466 462.774 458.444 462.768 457.404C463.657 447.23 465.679 437.187 468.797 427.463C472.917 414.515 479.098 401.752 479.015 388.2C479.015 387.87 479.015 387.513 479.015 387.217C478.899 382.972 478.15 378.775 477.69 374.551C476.928 367.483 477.003 360.36 477.058 353.257C476.999 350.473 477.193 347.689 477.635 344.939C478.068 342.706 479.695 340.467 478.699 338.503C476.77 334.69 469.772 333.289 466.009 333.152C460.942 332.973 455.956 334.299 451.06 335.618C449.57 336.023 448.011 336.456 446.885 337.507C445.374 338.922 444.942 341.14 444.887 343.208C444.626 352.378 449.906 360.909 450.325 370.066C450.401 371.714 450.325 373.5 451.287 374.874C451.921 375.622 452.609 376.322 453.347 376.969C455.407 379.229 455.469 382.636 455.324 385.699C455.263 386.936 455.194 388.172 455.112 389.409C453.99 405.91 450.657 422.186 445.203 437.8C444.677 439.467 443.987 441.078 443.143 442.609C441.765 444.757 440.043 446.665 438.047 448.255C435.219 450.671 432.189 452.841 428.99 454.739C426.854 456.003 424.574 457.212 423.112 459.218C421.649 461.224 421.326 464.267 423.139 465.956Z" fill="#FDA8A8"/>
<path opacity="0.1" d="M423.139 465.956C424.657 467.33 426.978 467.296 429.038 467.145L438.425 466.458C445.882 465.908 453.594 465.29 460.172 461.739C460.869 461.42 461.486 460.951 461.978 460.365C462.501 459.466 462.774 458.444 462.768 457.404C463.657 447.23 465.679 437.187 468.797 427.463C472.917 414.515 479.098 401.752 479.015 388.2C479.015 387.87 479.015 387.513 479.015 387.217C478.899 382.972 478.15 378.775 477.69 374.551C476.928 367.483 477.003 360.36 477.058 353.257C476.999 350.473 477.193 347.689 477.635 344.939C478.068 342.706 479.695 340.467 478.699 338.503C476.77 334.69 469.772 333.289 466.009 333.152C460.942 332.973 455.956 334.299 451.06 335.618C449.57 336.023 448.011 336.456 446.885 337.507C445.374 338.922 444.942 341.14 444.887 343.208C444.626 352.378 449.906 360.909 450.325 370.066C450.401 371.714 450.325 373.5 451.287 374.874C451.921 375.622 452.609 376.322 453.347 376.969C455.407 379.229 455.469 382.636 455.324 385.699C455.263 386.936 455.194 388.172 455.112 389.409C453.99 405.91 450.657 422.186 445.203 437.8C444.677 439.467 443.987 441.078 443.143 442.609C441.765 444.757 440.043 446.665 438.047 448.255C435.219 450.671 432.189 452.841 428.99 454.739C426.854 456.003 424.574 457.212 423.112 459.218C421.649 461.224 421.326 464.267 423.139 465.956Z" fill="black"/>
<path d="M423.139 465.956C424.657 467.33 426.978 467.296 429.038 467.145L438.425 466.458C445.882 465.908 453.594 465.29 460.172 461.739C460.869 461.42 461.486 460.951 461.978 460.365C462.501 459.467 462.774 458.444 462.768 457.405C463.657 447.23 465.679 437.188 468.797 427.463C472.917 414.515 479.098 401.752 479.015 388.2C471.079 389.078 463.096 389.472 455.112 389.381C453.99 405.883 450.657 422.159 445.203 437.773C444.677 439.44 443.987 441.051 443.143 442.581C441.765 444.73 440.043 446.637 438.047 448.228C435.219 450.644 432.189 452.813 428.99 454.712C426.854 455.976 424.574 457.185 423.112 459.19C421.649 461.196 421.326 464.267 423.139 465.956Z" fill="#EEEFF3"/>
<path opacity="0.1" d="M423.139 465.956C424.657 467.33 426.978 467.296 429.038 467.145L438.425 466.458C445.882 465.908 453.594 465.29 460.172 461.739C460.869 461.42 461.486 460.951 461.978 460.365C462.501 459.467 462.774 458.444 462.768 457.405C463.657 447.23 465.679 437.188 468.797 427.463C472.917 414.515 479.098 401.752 479.015 388.2C471.079 389.078 463.096 389.472 455.112 389.381C453.99 405.883 450.657 422.159 445.203 437.773C444.677 439.44 443.987 441.051 443.143 442.581C441.765 444.73 440.043 446.637 438.047 448.228C435.219 450.644 432.189 452.813 428.99 454.712C426.854 455.976 424.574 457.185 423.112 459.19C421.649 461.196 421.326 464.267 423.139 465.956Z" fill="black"/>
<path d="M443.877 463.058C446.133 462.249 448.3 461.214 450.346 459.967L460.694 454.128C461.629 453.522 462.671 453.1 463.764 452.885L465 462.124C465.309 464.39 465.474 467.055 463.764 468.573C463.153 469.061 462.454 469.425 461.704 469.645C457.948 470.943 453.896 470.971 449.92 471.094C437.711 471.486 425.378 472.915 413.347 470.772C411.877 470.511 410.284 470.085 409.399 468.917C408.389 467.543 408.677 465.551 409.653 464.157C410.721 462.831 412.082 461.771 413.629 461.059C416.691 459.41 419.871 458.009 423.05 456.601C423.246 456.485 423.479 456.445 423.702 456.491C424.011 456.594 424.107 456.972 424.19 457.288C424.746 459.541 426.559 461.32 428.626 462.385C428.653 462.385 439.304 464.514 443.877 463.058Z" fill="#BBBDC8"/>
<path opacity="0.1" d="M443.877 463.058C446.133 462.249 448.3 461.214 450.346 459.967L460.694 454.128C461.629 453.522 462.671 453.1 463.764 452.885L465 462.124C465.309 464.39 465.474 467.055 463.764 468.573C463.153 469.061 462.454 469.425 461.704 469.645C457.948 470.943 453.896 470.971 449.92 471.094C437.711 471.486 425.378 472.915 413.347 470.772C411.877 470.511 410.284 470.085 409.399 468.917C408.389 467.543 408.677 465.551 409.653 464.157C410.721 462.831 412.082 461.771 413.629 461.059C416.691 459.41 419.871 458.009 423.05 456.601C423.246 456.485 423.479 456.445 423.702 456.491C424.011 456.594 424.107 456.972 424.19 457.288C424.746 459.541 426.559 461.32 428.626 462.385C428.653 462.385 439.304 464.514 443.877 463.058Z" fill="black"/>
<path d="M430.006 475.573C431.524 476.947 433.845 476.912 435.905 476.761L445.292 476.074C452.749 475.525 460.461 474.906 467.039 471.355C467.736 471.037 468.353 470.567 468.845 469.981C469.368 469.083 469.641 468.061 469.635 467.021C470.524 456.847 472.546 446.804 475.664 437.079C479.784 424.131 485.965 411.369 485.882 397.816C485.882 397.486 485.882 397.129 485.882 396.834C485.765 392.589 485.017 388.392 484.557 384.167C483.795 377.099 483.87 369.976 483.925 362.874C483.866 360.089 484.059 357.305 484.502 354.555C484.935 352.323 486.562 350.084 485.566 348.119C483.637 344.307 476.639 342.906 472.876 342.768C467.808 342.59 462.823 343.915 457.927 345.234C456.437 345.639 454.878 346.072 453.752 347.123C452.241 348.538 451.809 350.757 451.754 352.824C451.493 361.994 456.773 370.526 457.192 379.682C457.268 381.331 457.192 383.116 458.154 384.49C458.788 385.238 459.476 385.939 460.214 386.585C462.274 388.845 462.336 392.252 462.191 395.316C462.13 396.552 462.061 397.789 461.978 399.025C460.857 415.527 457.524 431.803 452.07 447.417C451.544 449.084 450.854 450.695 450.009 452.225C448.632 454.374 446.91 456.281 444.914 457.871C442.086 460.288 439.055 462.457 435.857 464.356C433.721 465.62 431.441 466.829 429.979 468.834C428.516 470.84 428.193 473.883 430.006 475.573Z" fill="#FDA8A8"/>
<path d="M430.006 475.573C431.524 476.947 433.845 476.912 435.905 476.761L445.292 476.074C452.749 475.525 460.461 474.907 467.039 471.355C467.736 471.037 468.353 470.568 468.845 469.982C469.368 469.083 469.641 468.061 469.635 467.021C470.524 456.847 472.546 446.804 475.664 437.079C479.784 424.131 485.965 411.369 485.882 397.816C477.946 398.694 469.963 399.089 461.978 398.998C460.857 415.499 457.524 431.775 452.07 447.389C451.544 449.057 450.854 450.667 450.009 452.198C448.632 454.346 446.91 456.254 444.914 457.844C442.086 460.26 439.055 462.43 435.857 464.328C433.721 465.592 431.441 466.801 429.979 468.807C428.516 470.813 428.193 473.883 430.006 475.573Z" fill="#EEEFF3"/>
<path d="M450.744 472.674C452.999 471.866 455.167 470.83 457.213 469.583L467.561 463.745C468.496 463.139 469.538 462.717 470.631 462.501L471.867 471.74C472.176 474.007 472.341 476.672 470.631 478.19C470.02 478.678 469.32 479.042 468.571 479.261C464.814 480.56 460.763 480.587 456.787 480.711C444.578 481.102 432.245 482.531 420.214 480.388C418.744 480.127 417.151 479.701 416.265 478.533C415.256 477.16 415.544 475.168 416.519 473.773C417.588 472.448 418.949 471.388 420.495 470.675C423.558 469.027 426.737 467.625 429.917 466.217C430.113 466.101 430.346 466.062 430.569 466.107C430.878 466.21 430.974 466.588 431.057 466.904C431.613 469.157 433.426 470.936 435.493 472.001C435.52 472.001 446.171 474.13 450.744 472.674Z" fill="#BBBDC8"/>
<path d="M416.691 196.94C420.035 192.819 420.125 187.062 420.042 181.773C420.042 179.713 419.98 177.583 419.905 175.488V175.44C419.812 171.59 419.406 167.753 418.689 163.969C418.328 162.153 417.846 160.363 417.247 158.611C417.701 158.508 418.154 158.412 418.621 158.33C425.819 156.908 433.225 156.908 440.423 158.33C441.666 158.577 444.811 158.522 446.603 159.133C447.114 159.255 447.558 159.567 447.846 160.006C448.197 160.741 447.476 162.87 446.954 164.759C446.667 165.61 446.505 166.499 446.473 167.397C446.542 168.24 446.671 169.078 446.858 169.904C447.18 171.422 447.606 172.926 447.805 174.465C448.155 177.089 447.846 179.761 448.018 182.405C448.19 185.05 448.952 187.832 450.964 189.556C439.274 190.558 427.758 193.04 416.691 196.94Z" fill="#FDA8A8"/>
<path opacity="0.1" d="M449.597 169.602C448.684 169.677 447.778 169.766 446.851 169.869C437.704 170.846 428.677 172.733 419.905 175.502V175.454L418.689 163.983C418.689 163.296 418.689 162.609 418.689 161.888C418.689 160.713 418.655 159.525 418.628 158.343C425.826 156.921 433.232 156.921 440.43 158.343C441.673 158.591 444.818 158.536 446.61 159.147C446.61 160.267 446.61 161.386 446.651 162.506C446.697 163.268 446.8 164.026 446.961 164.773C447.289 166.627 448.215 168.323 449.597 169.602Z" fill="black"/>
<path d="M432.272 172.754C446.304 172.754 457.68 161.376 457.68 147.339C457.68 133.303 446.304 121.924 432.272 121.924C418.24 121.924 406.865 133.303 406.865 147.339C406.865 161.376 418.24 172.754 432.272 172.754Z" fill="#FDA8A8"/>
<path d="M409.955 243.168C405.443 227.198 409.563 210.046 420.337 197.435C422.734 194.625 425.144 191.74 428.289 190.057C432.032 188.065 436.461 187.997 440.698 187.956C444.44 187.956 448.3 187.956 451.74 189.446C456.389 191.431 459.596 195.745 462.301 200.024C465.185 204.585 467.795 209.524 468.234 214.909C468.468 218.103 467.905 221.346 468.378 224.526C468.983 228.558 471.228 232.171 472.148 236.141C472.65 238.284 472.753 240.503 473.075 242.687C473.562 245.676 474.269 248.624 475.19 251.507C482.013 274.168 491.356 295.992 503.043 316.57C506.476 322.635 510.15 328.632 512.457 335.206C513.501 338.18 514.256 341.388 513.405 344.451C511.983 349.534 505.563 352.522 500.763 350.331C500.94 350.896 500.904 351.506 500.661 352.045C500.418 352.585 499.985 353.016 499.444 353.257C498.303 353.773 497.055 354.008 495.805 353.944L453.395 355.071C452.281 355.099 451.173 355.248 450.092 355.517C445.106 356.795 446.981 358.952 446.445 360.751C445.793 362.949 442.641 362.771 440.444 362.125C440.78 365.333 440.856 369.255 436.715 370.189C435.641 370.407 434.531 370.369 433.474 370.079C425.96 368.143 418.169 367.516 410.442 368.225C407.613 368.486 404.379 368.802 402.284 366.851C400.705 365.402 400.293 363.094 400.025 360.964C395.802 327.306 404.489 293.6 411.012 260.348C411.891 255.862 411.575 248.595 410.257 244.212L409.955 243.168Z" fill="#F75842"/>
<path d="M466.263 219.972C467.259 222.843 468.502 225.666 468.838 228.689C469.106 231.106 468.784 233.552 468.928 235.977C469.191 238.669 469.746 241.324 470.583 243.896C471.905 248.899 473.535 253.815 475.465 258.617C476.385 260.78 477.45 263.164 476.708 265.396C475.966 267.629 473.666 269.009 473.007 271.228C472.32 273.57 473.693 276.036 475.444 277.747C477.196 279.457 479.386 280.673 481.007 282.493C482.771 284.478 483.753 287.013 484.996 289.362C486.761 292.469 488.785 295.422 491.046 298.189L499.348 308.966C499.866 309.743 500.545 310.399 501.34 310.889C504.086 312.318 506.964 309.44 509.758 308.142C513.467 306.377 517.806 307.414 521.906 307.709C526.006 308.004 530.943 306.94 532.406 303.107C532.89 301.551 532.991 299.902 532.701 298.299C532.058 292.818 530.474 287.489 528.018 282.548C526.521 279.539 524.694 276.661 523.753 273.44C522.984 270.823 522.833 268.068 522.222 265.41C521.611 262.752 520.533 260.21 519.667 257.614C513.528 239.164 518.143 218.976 516.158 199.633C515.424 192.496 513.247 184.672 507.108 180.956C503.461 178.751 499.08 178.408 494.747 178.209L492.79 178.119L489.638 177.961C485.079 177.735 480.505 177.563 476.062 178.531C469.814 179.905 462.294 184.762 462.047 191.74C461.778 201.326 463.206 210.883 466.263 219.972Z" fill="#F9A826"/>
<path opacity="0.1" d="M489.673 177.934C490.515 182.608 490.936 187.348 490.929 192.097C491.053 205.657 492.516 219.161 493.985 232.624L494.953 241.554C495.132 243.202 495.345 244.933 496.327 246.259C497.309 247.585 499.369 248.279 500.667 247.255C501.463 244.102 501.305 240.791 501.147 237.542C500.804 230.632 500.463 223.72 500.124 216.805C499.795 210.073 499.437 203.335 498.62 196.645C497.979 191.463 497.035 186.323 495.791 181.251C495.555 180.201 495.227 179.173 494.809 178.181L492.852 178.092L489.673 177.934Z" fill="black"/>
<path d="M444.804 183.745C440.595 183.14 436.186 182.831 432.19 184.294C428.372 185.703 425.323 188.594 422.576 191.637C420.703 193.598 419.155 195.845 417.989 198.293C415.647 203.679 416.561 209.888 417.989 215.589C421.883 231.292 429.615 246.438 442.023 256.803C445.801 259.873 449.822 262.63 454.047 265.046C459.541 268.268 465.213 271.228 471.29 273.09C472.986 273.612 474.792 274.051 476.529 273.68C478.267 273.309 479.908 271.901 479.963 270.122C470.006 264.524 461.079 257.291 452.214 250.092C449.784 248.217 447.508 246.15 445.409 243.91C442.264 240.373 440.046 236.1 436.997 232.48C434.25 229.231 430.816 226.491 428.756 222.774C427.463 220.236 426.598 217.503 426.195 214.683C425.179 208.933 424.986 202.827 427.266 197.449C429.546 192.07 434.772 187.653 440.609 187.75C443.603 187.798 446.452 188.986 449.213 190.147L466.586 197.483C466.373 197.387 467.582 194.371 467.527 193.952C467.362 192.64 467.129 192.62 466.154 191.624C464.492 189.961 461.91 188.794 459.802 187.825C455.024 185.753 449.973 184.379 444.804 183.745Z" fill="#F9A826"/>
<path d="M410.223 142.531C415.179 141.43 419.766 139.063 423.537 135.662L419.905 154.73C423.524 153.069 427.033 151.178 430.411 149.07C430.899 157.794 430.191 166.717 426.978 174.836C423.764 182.955 417.838 190.222 409.886 193.829C416.945 195.01 423.283 189.941 429.567 186.513C433.948 184.13 441.433 186.582 446.226 185.139C450.291 183.944 454.466 182.9 458.133 180.764C464.945 176.787 466.49 165.171 467.87 157.409C469.251 149.647 467.994 141.611 465.7 134.055C464.937 131.379 463.904 128.787 462.617 126.32C460.848 123.081 458.427 120.243 455.506 117.987C452.585 115.731 449.227 114.105 445.646 113.213C442.065 112.321 438.338 112.182 434.701 112.804C431.063 113.426 427.594 114.796 424.513 116.827C418.181 120.997 412.31 127.131 407.476 132.949C406.789 133.753 403.953 136.61 404.894 137.812C406.041 139.268 412.77 135.12 413.91 134.556C413.58 135.8 411.534 142.208 410.223 142.531Z" fill="#FFD566"/>
<g opacity="0.1">
<path d="M438.796 364.694C437.722 364.912 436.611 364.874 435.555 364.584C428.041 362.648 420.25 362.021 412.523 362.729C409.694 362.99 406.459 363.306 404.365 361.356C402.786 359.906 402.374 357.598 402.106 355.469C397.883 321.811 406.569 288.105 413.093 254.852C413.972 250.367 413.656 243.1 412.338 238.717L412.029 237.652C409.486 228.571 409.637 218.947 412.461 209.95C407.776 220.391 406.889 232.142 409.955 243.168L410.264 244.233C411.582 248.615 411.898 255.91 411.019 260.368C404.516 293.621 395.829 327.347 400.032 360.985C400.3 363.114 400.719 365.422 402.291 366.871C404.351 368.802 407.62 368.486 410.449 368.245C418.176 367.536 425.967 368.164 433.481 370.1C434.538 370.39 435.648 370.428 436.722 370.21C440.1 369.447 440.67 366.693 440.588 363.966C440.039 364.315 439.432 364.562 438.796 364.694Z" fill="black"/>
<path d="M502.837 344.836C503.014 345.401 502.978 346.011 502.735 346.55C502.492 347.09 502.059 347.521 501.518 347.762C500.377 348.277 499.129 348.513 497.879 348.449L455.469 349.576C454.355 349.604 453.247 349.753 452.166 350.022C447.18 351.3 449.055 353.457 448.519 355.256C447.867 357.454 444.715 357.276 442.518 356.63C442.724 358.588 442.827 360.806 441.941 362.455C443.87 362.743 445.944 362.489 446.459 360.751C446.974 359.013 445.12 356.795 450.106 355.517C451.187 355.248 452.295 355.099 453.409 355.071L495.791 353.944C497.042 354.008 498.289 353.773 499.431 353.257C499.971 353.016 500.404 352.585 500.647 352.046C500.89 351.506 500.927 350.896 500.749 350.331C505.556 352.522 511.97 349.534 513.391 344.451C513.605 343.681 513.725 342.888 513.748 342.088C511.18 345.166 506.531 346.539 502.837 344.836Z" fill="black"/>
</g>
<path d="M445.944 201.302C449.592 209.06 452.817 217.01 455.606 225.117C457.858 231.649 459.843 238.511 459.094 245.38C458.346 252.249 454.288 259.187 447.695 261.351C444.894 262.271 441.893 262.278 438.947 262.346C431.891 262.512 424.85 263.081 417.859 264.05C414.605 264.588 411.325 264.953 408.032 265.142C403.376 265.293 398.72 264.565 394.078 264.943C386.566 265.554 379.431 269.064 371.891 269.064C370.972 269.121 370.052 268.951 369.213 268.57C367.84 267.828 367.229 266.221 366.762 264.737C365.711 261.385 364.887 257.538 366.666 254.509C368.856 250.779 373.835 250.03 378.154 249.701C387.878 249.014 397.613 248.533 407.359 248.258C415.675 248.025 424.684 247.709 431.132 242.447C431.567 242.136 431.923 241.726 432.169 241.252C432.413 240.448 432.384 239.586 432.087 238.8C429.531 228.81 428.435 218.503 428.832 208.198C428.788 207.274 429.027 206.359 429.519 205.574C430.102 204.946 430.86 204.506 431.695 204.311C437.452 202.463 443.616 202.291 449.467 203.816" fill="#FDA8A8"/>
<path d="M428.66 208.191C427.664 208.534 426.796 209.174 426.174 210.025C426.449 207.161 426.078 204.269 426.133 201.384C426.188 198.499 426.724 195.491 428.543 193.251C430.858 190.394 434.792 189.37 438.473 189.274C443.815 189.13 449.343 190.682 453.257 194.323C455.777 196.683 457.413 199.834 457.893 203.253C458.016 204.194 458.428 207.724 457.446 208.329C456.588 208.865 453.326 207.017 452.275 206.721C444.475 204.428 436.117 204.948 428.66 208.191Z" fill="#F75842"/>
<path opacity="0.1" d="M324.805 46.0221C327.46 46.0221 329.612 43.8693 329.612 41.2138C329.612 38.5583 327.46 36.4055 324.805 36.4055C322.15 36.4055 319.998 38.5583 319.998 41.2138C319.998 43.8693 322.15 46.0221 324.805 46.0221Z" fill="#F9A826"/>
<path opacity="0.1" d="M357.079 138.753C359.734 138.753 361.886 136.6 361.886 133.945C361.886 131.289 359.734 129.136 357.079 129.136C354.425 129.136 352.273 131.289 352.273 133.945C352.273 136.6 354.425 138.753 357.079 138.753Z" fill="#F9A826"/>
<path opacity="0.1" d="M265.75 50.8304C268.404 50.8304 270.556 48.6777 270.556 46.0221C270.556 43.3666 268.404 41.2139 265.75 41.2139C263.095 41.2139 260.943 43.3666 260.943 46.0221C260.943 48.6777 263.095 50.8304 265.75 50.8304Z" fill="#F9A826"/>
<path opacity="0.1" d="M118.111 277.506C124.937 277.506 130.471 271.97 130.471 265.142C130.471 258.313 124.937 252.778 118.111 252.778C111.284 252.778 105.75 258.313 105.75 265.142C105.75 271.97 111.284 277.506 118.111 277.506Z" fill="#F9A826"/>
<path opacity="0.1" d="M615.962 73.4979C618.617 73.4979 620.769 71.3452 620.769 68.6896C620.769 66.0341 618.617 63.8813 615.962 63.8813C613.307 63.8813 611.155 66.0341 611.155 68.6896C611.155 71.3452 613.307 73.4979 615.962 73.4979Z" fill="#F9A826"/>
<path opacity="0.1" d="M621.456 149.743C630.178 149.743 637.25 142.67 637.25 133.945C637.25 125.22 630.178 118.146 621.456 118.146C612.733 118.146 605.662 125.22 605.662 133.945C605.662 142.67 612.733 149.743 621.456 149.743Z" fill="#F9A826"/>
<path opacity="0.1" d="M646.863 94.1048C649.518 94.1048 651.67 91.9521 651.67 89.2966C651.67 86.641 649.518 84.4883 646.863 84.4883C644.208 84.4883 642.056 86.641 642.056 89.2966C642.056 91.9521 644.208 94.1048 646.863 94.1048Z" fill="#F9A826"/>
<path opacity="0.1" d="M604.288 182.028C606.943 182.028 609.095 179.875 609.095 177.219C609.095 174.564 606.943 172.411 604.288 172.411C601.634 172.411 599.482 174.564 599.482 177.219C599.482 179.875 601.634 182.028 604.288 182.028Z" fill="#F9A826"/>
<path opacity="0.1" d="M315.191 84.4884C317.846 84.4884 319.998 82.3356 319.998 79.6801C319.998 77.0246 317.846 74.8718 315.191 74.8718C312.537 74.8718 310.384 77.0246 310.384 79.6801C310.384 82.3356 312.537 84.4884 315.191 84.4884Z" fill="#F9A826"/>
<path opacity="0.1" d="M135.278 327.65C137.933 327.65 140.085 325.497 140.085 322.841C140.085 320.186 137.933 318.033 135.278 318.033C132.623 318.033 130.471 320.186 130.471 322.841C130.471 325.497 132.623 327.65 135.278 327.65Z" fill="#F9A826"/>
<path opacity="0.1" d="M127.725 217.746C130.379 217.746 132.531 215.593 132.531 212.938C132.531 210.282 130.379 208.13 127.725 208.13C125.07 208.13 122.918 210.282 122.918 212.938C122.918 215.593 125.07 217.746 127.725 217.746Z" fill="#F9A826"/>
<path opacity="0.1" d="M391.414 41.2137C394.069 41.2137 396.221 39.061 396.221 36.4054C396.221 33.7499 394.069 31.5972 391.414 31.5972C388.759 31.5972 386.607 33.7499 386.607 36.4054C386.607 39.061 388.759 41.2137 391.414 41.2137Z" fill="#F9A826"/>
<path opacity="0.1" d="M407.208 84.4884C409.863 84.4884 412.015 82.3356 412.015 79.6801C412.015 77.0246 409.863 74.8718 407.208 74.8718C404.553 74.8718 402.401 77.0246 402.401 79.6801C402.401 82.3356 404.553 84.4884 407.208 84.4884Z" fill="#F9A826"/>
</g>
<defs>
<linearGradient id="paint0_linear_22_25" x1="264.074" y1="484.008" x2="264.074" y2="112.651" gradientUnits="userSpaceOnUse">
<stop stop-color="#808080" stop-opacity="0.25"/>
<stop offset="0.54" stop-color="#808080" stop-opacity="0.12"/>
<stop offset="1" stop-color="#808080" stop-opacity="0.1"/>
</linearGradient>
<linearGradient id="paint1_linear_22_25" x1="448.409" y1="481.542" x2="448.409" y2="110.59" gradientUnits="userSpaceOnUse">
<stop stop-color="#808080" stop-opacity="0.25"/>
<stop offset="0.54" stop-color="#808080" stop-opacity="0.12"/>
<stop offset="1" stop-color="#808080" stop-opacity="0.1"/>
</linearGradient>
<clipPath id="clip0_22_25">
<rect width="743" height="498" fill="white"/>
</clipPath>
</defs>
</svg>
