<svg width="241" height="95" viewBox="0 0 241 95" fill="none" xmlns="http://www.w3.org/2000/svg">
<path d="M0.641142 59.5429C6.01694 80.8778 28.7754 92.4193 49.425 88.2371C70.4794 83.973 86.6683 65.9069 91.2051 45.0847C93.542 34.3589 91.3639 22.6511 82.7086 15.3408C73.9383 7.9333 61.0126 8.33166 53.1394 16.823C36.7025 34.5505 54.0849 59.1662 66.5487 73.4016C81.3899 90.3524 103.484 101.041 125.293 90.4335C144.301 81.189 162.641 63.02 167.359 41.8186C169.668 31.4418 168.6 19.266 162.152 10.5059C154.939 0.70625 141.319 -2.54442 131.134 4.54455C111.994 17.8658 122.116 47.4742 132.602 63.0273C145.758 82.5384 169.244 94.7128 192.853 91.7416C215.512 88.89 234.039 72.9108 240.297 50.915C241.775 45.722 237.39 40.145 232.435 39.1728C226.772 38.0618 222.235 41.8514 220.752 47.0632C213.683 71.9088 183.357 77.9149 163.204 65.6481C152.259 58.9862 145.039 47.5257 141.606 35.3633C140.221 30.4549 139.368 25.2531 142.458 21.0073C143.044 20.2026 144.451 20.6793 142.93 20.4708C143.991 20.6163 144.555 20.8497 145.342 21.4924C147.148 22.9665 147.855 25.6618 148.253 27.8517C150.7 41.3129 141.018 53.8483 131.556 62.1189C121.552 70.8632 109.774 78.6027 96.4547 72.3584C84.4765 66.7429 75.0154 53.8421 68.8524 42.4308C67.5856 40.0852 66.2552 37.1685 66.3554 34.428C66.3962 33.3109 66.8986 30.2894 68.2967 29.8818C70.8101 29.1492 72.128 34.5007 72.214 36.1591C72.8912 49.2196 61.3622 63.3884 49.6079 67.5783C36.7808 72.1507 22.8349 66.4917 19.3824 52.7902C18.062 47.5496 11.3536 45.0577 6.64439 46.7501C1.17688 48.7152 -0.683153 54.2872 0.641142 59.5429Z" fill="#F9A826"/>
</svg>
